<svg width="26" height="28" viewBox="0 0 26 28" fill="none" xmlns="http://www.w3.org/2000/svg">
<path d="M14.254 27.9375C10.4067 27.9375 7.05883 27.2717 4.21037 25.9399C1.3989 24.5712 -0.00683594 22.1851 -0.00683594 18.7818C-0.00683594 17.561 0.363095 16.3772 1.10296 15.2304C1.84282 14.0837 2.93411 13.1588 4.37684 12.456C5.81957 11.7161 7.57673 11.3462 9.64834 11.3462C11.239 11.3462 12.5893 11.4202 13.6991 11.5681C14.8089 11.7161 16.0851 12.123 17.5279 12.7889C18.9706 13.4548 20.4688 14.5091 22.0225 15.9518C21.4306 13.3993 20.5428 11.1612 19.359 9.23757C18.1752 7.31393 16.8435 5.83421 15.3638 4.7984C13.921 3.72561 12.4968 3.18921 11.0911 3.18921C10.4252 3.18921 9.79632 3.31868 9.20443 3.57764C8.64953 3.79959 7.96516 4.13253 7.15132 4.57645C6.22649 5.16833 5.54212 5.46428 5.0982 5.46428C4.91324 5.46428 4.74677 5.40879 4.5988 5.29781C4.48782 5.14984 4.43233 4.98337 4.43233 4.7984C4.43233 3.31868 5.0797 2.1719 6.37446 1.35805C7.70621 0.544204 9.31541 0.174275 11.2021 0.248262C13.7916 0.396234 16.1591 1.50602 18.3047 3.57764C20.4503 5.61225 22.1335 8.14627 23.3543 11.1797C24.612 14.2131 25.2409 17.1911 25.2409 20.1135C25.2409 20.5944 25.2039 21.2788 25.1299 22.1666L23.3543 22.0556C21.9485 19.2072 20.1359 17.1911 17.9163 16.0073C15.7337 14.7865 13.5326 14.1761 11.313 14.1761C8.46457 14.1761 6.42995 14.6016 5.20918 15.4524C3.98841 16.3032 3.37803 17.5425 3.37803 19.1702C3.37803 20.8719 4.22887 22.2406 5.93055 23.2764C7.63222 24.3122 9.81481 24.8301 12.4783 24.8301C13.958 24.8301 15.1418 24.7561 16.0296 24.6082C16.9175 24.4232 17.8423 24.1827 18.8041 23.8868C19.581 23.6279 20.2653 23.4429 20.8572 23.3319C21.4491 23.2209 22.2075 23.1654 23.1323 23.1654C24.1681 23.1654 24.8155 23.2394 25.0744 23.3874C25.3704 23.5354 25.5184 23.8683 25.5184 24.3862C25.5184 24.7561 24.76 25.2185 23.2433 25.7734C21.7266 26.3283 20.0249 26.8278 18.1382 27.2717C16.2516 27.7156 14.9568 27.9375 14.254 27.9375Z" fill="#0044FF"/>
</svg>
