<svg width="24" height="26" viewBox="0 0 24 26" fill="none" xmlns="http://www.w3.org/2000/svg">
<path d="M0.674805 18.855C1.19271 18.4481 1.69211 18.2446 2.17302 18.2446C2.61694 18.2446 3.04236 18.3741 3.44928 18.633C3.8932 18.892 4.33711 19.2249 4.78103 19.6319C5.22495 20.0018 5.57638 20.2792 5.83533 20.4642C6.68617 21.1301 7.85145 21.648 9.33117 22.0179C10.8109 22.3878 12.3831 22.5728 14.0478 22.5728C15.9344 22.5728 17.6176 22.2214 19.0973 21.5185C20.614 20.7786 21.3724 19.7983 21.3724 18.5776C21.3724 17.4678 20.9655 16.5984 20.1516 15.9695C19.3378 15.3037 18.3575 14.8228 17.2107 14.5268C16.0639 14.2309 14.5472 13.9534 12.6605 13.6945C10.108 13.3985 8.07341 13.0286 6.55669 12.5847C5.07697 12.1408 3.8932 11.4194 3.00537 10.4206C2.11753 9.38479 1.67362 7.94206 1.67362 6.09241C1.67362 4.09479 2.61694 2.61507 4.50358 1.65325C6.39023 0.654435 8.55432 0.155029 10.9959 0.155029C13.2154 0.155029 15.1021 0.635939 16.6558 1.59776C18.2465 2.52258 19.0603 3.85433 19.0973 5.593C19.1713 6.59182 19.0233 7.38717 18.6534 7.97906C18.2835 8.53395 17.8396 8.8114 17.3217 8.8114C17.0257 8.8114 16.7668 8.70042 16.5448 8.47846C16.3598 8.2565 16.2674 7.96056 16.2674 7.59063C16.2674 6.99874 16.4708 6.35136 16.8778 5.64849C16.6928 4.76066 16.0824 4.09479 15.0466 3.65087C14.0478 3.20695 12.8455 2.985 11.4398 2.985C9.36817 2.985 7.72197 3.37342 6.5012 4.15028C5.28043 4.89014 4.67005 5.77797 4.67005 6.81378C4.67005 7.92357 5.11397 8.77441 6.0018 9.36629C6.88963 9.95818 7.96243 10.3836 9.22019 10.6426C10.5149 10.8645 12.3461 11.0865 14.7137 11.3084C16.6743 11.5674 18.265 11.8818 19.4858 12.2517C20.7435 12.6217 21.7978 13.343 22.6487 14.4158C23.4995 15.4516 23.9249 16.9499 23.9249 18.9105C23.9249 20.9451 22.9816 22.5543 21.095 23.7381C19.2083 24.8849 16.9517 25.4583 14.3252 25.4583C10.9589 25.4583 7.94393 24.8849 5.28043 23.7381C2.65393 22.5913 1.11872 20.9636 0.674805 18.855Z" fill="#0044FF"/>
</svg>
