<svg width="8" height="36" viewBox="0 0 8 36" fill="none" xmlns="http://www.w3.org/2000/svg">
<path d="M2.0921 35.6949C1.25539 35.5405 0.807298 34.1976 0.74783 31.6662C0.695076 29.0985 0.760433 26.9099 0.9439 25.1005C1.12737 23.2911 1.44762 20.4348 1.90464 16.5317C1.9824 15.9065 2.11192 15.1028 2.29319 14.1206C2.52147 12.8837 2.77019 12.0456 3.03936 11.6063C3.34492 11.1736 3.73415 11.0009 4.20708 11.0882C4.60724 11.1621 4.89968 11.3101 5.08438 11.5323C5.31217 11.7248 5.48345 12.0197 5.5982 12.4171L5.1408 14.5897C4.71111 16.9179 4.41405 19.139 4.24963 21.2529C4.12159 23.3734 3.98995 26.2269 3.85471 29.8133C3.86375 31.3949 3.83221 32.6869 3.76007 33.6892C3.73883 34.212 3.55389 34.7045 3.20524 35.1668C2.86331 35.5927 2.49226 35.7687 2.0921 35.6949ZM6.26689 5.43072C5.46656 5.28301 4.92338 4.86301 4.63735 4.17072C4.3877 3.48515 4.3468 2.68763 4.51465 1.77816C4.5885 1.37799 4.6604 1.09032 4.73035 0.915143C4.80139 0.32637 5.18251 0.0957647 5.87371 0.223329C6.38301 0.317324 6.86881 0.538645 7.33111 0.887292C7.83651 1.20627 7.97 1.40019 7.73159 1.46904C7.92081 2.48203 7.96507 3.26136 7.86436 3.80704C7.77708 4.27996 7.59745 4.64179 7.32546 4.89254C7.06019 5.10691 6.70734 5.2863 6.26689 5.43072Z" fill="#0044FF"/>
</svg>
