<svg width="29" height="34" viewBox="0 0 29 34" fill="none" xmlns="http://www.w3.org/2000/svg">
<path d="M11.0475 33.2561C10.1407 33.4377 9.58196 33.0025 9.37133 31.9506C9.32775 31.7329 9.30951 31.265 9.3166 30.5468C9.35997 29.8213 9.29813 29.0414 9.13108 28.2071L8.59724 25.541L7.81283 21.6235C7.11578 19.0845 6.0341 16.0376 4.56781 12.4831C2.95634 8.58026 1.58434 4.93134 0.45181 1.53629C0.437157 0.897859 0.665601 0.531435 1.13715 0.437015C1.75379 0.313543 2.82422 1.79693 4.34845 4.88719C5.86542 7.94118 7.82542 13.1135 10.2284 20.4042C10.5907 18.4453 11.2215 16.4137 12.1206 14.3096C13.0125 12.1692 14.0423 10.3407 15.21 8.82418C16.3777 7.30764 17.4875 6.44405 18.5394 6.23342C18.9747 6.14626 19.2721 6.21874 19.4318 6.45087C19.6277 6.67573 19.7548 7.02756 19.8129 7.50637C18.0505 9.82109 16.3317 12.4478 14.6564 15.3864C12.9812 18.325 12.2816 20.4835 12.5576 21.8619C12.7247 22.6962 13.6063 23.5194 15.2026 24.3316C16.7916 25.1075 18.6852 25.7092 20.8836 26.1368C23.0747 26.5281 25.0698 26.6002 26.869 26.3531C27.5799 26.3239 28.0081 26.6721 28.1533 27.3975C28.4003 28.6308 27.363 29.4799 25.0415 29.9447C23.1916 30.3151 21.0114 29.9783 18.501 28.9341C16.0268 27.8827 13.8283 26.7006 11.9054 25.3879C11.9201 26.0264 11.9565 26.585 12.0146 27.0638C12.0655 27.5063 12.1055 27.8945 12.1346 28.2282C12.3091 29.8532 12.3456 31.0721 12.2443 31.8846C12.1719 32.6537 11.773 33.1108 11.0475 33.2561Z" fill="#0044FF"/>
</svg>
