<svg width="400" height="10" viewBox="0 0 400 10" fill="none" xmlns="http://www.w3.org/2000/svg">
<path d="M1.5 4C0.671573 4 0 4.67157 0 5.5C0 6.32843 0.671573 7 1.5 7V4ZM1.6 5.5V7H1.76531L1.92665 6.964L1.6 5.5ZM15 3.04642L14.8449 1.55446L15 3.04642ZM33 3.87504L32.4325 5.26353L33 3.87504ZM96 4.05669L95.3612 5.41389L96 4.05669ZM168 3.39768L167.68 1.93218L168 3.39768ZM249 5.13985L248.81 6.62774L249 5.13985ZM312 4.29792L311.536 2.87164L312 4.29792ZM398 4.50228L399.392 3.9441L399.369 3.8861L399.341 3.83023L398 4.50228ZM398.4 5.5L397.008 6.05818L397.385 7H398.4V5.5ZM398.5 7C399.328 7 400 6.32843 400 5.5C400 4.67157 399.328 4 398.5 4V7ZM1.5 5.5V7H1.6V5.5V4H1.5V5.5ZM1.6 5.5L1.92665 6.964C7.84803 5.64282 12.2452 4.84089 15.1551 4.53838L15 3.04642L14.8449 1.55446C11.7548 1.87569 7.21864 2.70948 1.27335 4.036L1.6 5.5ZM15 3.04642L15.1551 4.53838C18.1336 4.22875 21.112 3.98411 24.0903 3.80446L24 2.30718L23.9097 0.809901C20.888 0.992173 17.8664 1.24036 14.8449 1.55446L15 3.04642ZM24 2.30718L24.0903 3.80446C26.8484 3.63809 29.6242 4.11569 32.4325 5.26353L33 3.87504L33.5675 2.48655C30.3758 1.18198 27.1516 0.614344 23.9097 0.809901L24 2.30718ZM33 3.87504L32.4325 5.26353C35.5989 6.55777 38.7922 7.21169 42.0031 7.20508L42 5.70509L41.9969 4.20509C39.2078 4.21083 36.4011 3.64472 33.5675 2.48655L33 3.87504ZM42 5.70509L42.0031 7.20508C45.1721 7.19856 48.3313 6.66553 51.4753 5.61526L51 4.19255L50.5247 2.76984C47.6687 3.72394 44.8279 4.19926 41.9969 4.20509L42 5.70509ZM51 4.19255L51.4753 5.61526C54.1741 4.71368 56.8473 4.69607 59.5423 5.55955L60 4.13108L60.4577 2.70261C57.1527 1.64368 53.8259 1.66705 50.5247 2.76984L51 4.19255ZM60 4.13108L59.5423 5.55955C62.7331 6.58188 65.9439 6.92513 69.1617 6.57629L69 5.08503L68.8383 3.59377C66.0561 3.89539 63.2669 3.60267 60.4577 2.70261L60 4.13108ZM69 5.08503L69.1617 6.57629C72.2293 6.24374 75.2948 5.70091 78.3578 4.94852L78 3.49183L77.6422 2.03513C74.7052 2.75656 71.7707 3.27587 68.8383 3.59377L69 5.08503ZM78 3.49183L78.3578 4.94852C81.2676 4.23378 84.1727 3.80511 87.0745 3.66076L87 2.16261L86.9255 0.664464C83.8273 0.818584 80.7324 1.27605 77.6422 2.03513L78 3.49183ZM87 2.16261L87.0745 3.66076C89.804 3.52498 92.5603 4.09561 95.3612 5.41389L96 4.05669L96.6388 2.6995C93.4397 1.19386 90.196 0.501773 86.9255 0.664464L87 2.16261ZM96 4.05669L95.3612 5.41389C98.6373 6.95579 101.976 7.38139 105.328 6.63156L105 5.16775L104.672 3.70394C102.024 4.29661 99.3627 3.9815 96.6388 2.6995L96 4.05669ZM105 5.16775L105.328 6.63156C108.18 5.9933 111.025 5.8012 113.868 6.05192L114 4.55772L114.132 3.06352C110.975 2.78511 107.82 2.9997 104.672 3.70394L105 5.16775ZM114 4.55772L113.868 6.05192C116.866 6.31631 119.864 6.5866 122.862 6.8628L123 5.36912L123.138 3.87545C120.136 3.5989 117.134 3.32825 114.132 3.06352L114 4.55772ZM123 5.36912L122.862 6.8628C125.948 7.14702 129.033 7.16645 132.119 6.92102L132 5.42575L131.881 3.93047C128.967 4.16229 126.052 4.14397 123.138 3.87545L123 5.36912ZM132 5.42575L132.119 6.92102C134.984 6.69313 137.85 6.84994 140.721 7.39321L141 5.91937L141.279 4.44553C138.15 3.85338 135.016 3.68111 131.881 3.93047L132 5.42575ZM141 5.91937L140.721 7.39321C143.804 7.97666 146.89 8.29157 149.978 8.33705L150 6.83722L150.022 5.33738C147.11 5.29448 144.196 4.99749 141.279 4.44553L141 5.91937ZM150 6.83722L149.978 8.33705C153.128 8.38345 156.271 7.96462 159.405 7.0859L159 5.64161L158.595 4.19732C155.729 5.00112 152.872 5.37936 150.022 5.33738L150 6.83722ZM159 5.64161L159.405 7.0859C162.377 6.25243 165.349 5.51155 168.32 4.86319L168 3.39768L167.68 1.93218C164.651 2.5932 161.623 3.34828 158.595 4.19732L159 5.64161ZM168 3.39768L168.32 4.86319C171.214 4.2317 174.102 3.92812 176.988 3.9505L177 2.45054L177.012 0.95059C173.898 0.92644 170.786 1.25429 167.68 1.93218L168 3.39768ZM177 2.45054L176.988 3.9505C179.698 3.97151 182.45 4.74637 185.261 6.3373L186 5.03181L186.739 3.72633C183.55 1.9221 180.302 0.97611 177.012 0.95059L177 2.45054ZM186 5.03181L185.261 6.3373C188.503 8.17186 191.828 8.91679 195.195 8.47514L195 6.98788L194.805 5.50063C192.172 5.84605 189.497 5.28693 186.739 3.72633L186 5.03181ZM195 6.98788L195.195 8.47514C198.332 8.06368 201.457 7.21808 204.568 5.94608L204 4.55765L203.432 3.16923C200.543 4.35047 197.668 5.12502 194.805 5.50063L195 6.98788ZM204 4.55765L204.568 5.94608C207.139 4.89466 209.678 5.02344 212.307 6.39341L213 5.06326L213.693 3.7331C210.322 1.97569 206.861 1.76739 203.432 3.16923L204 4.55765ZM213 5.06326L212.307 6.39341C215.631 8.12605 219.042 8.49408 222.453 7.4147L222 5.98462L221.547 4.55453C218.958 5.37405 216.369 5.12784 213.693 3.7331L213 5.06326ZM222 5.98462L222.453 7.4147C225.169 6.55515 227.862 6.52934 230.573 7.3338L231 5.89578L231.427 4.45776C228.138 3.48177 224.831 3.51518 221.547 4.55453L222 5.98462ZM231 5.89578L230.573 7.3338C233.852 8.3066 237.148 8.30734 240.426 7.33595L240 5.89776L239.574 4.45956C236.852 5.266 234.148 5.26542 231.427 4.45776L231 5.89578ZM240 5.89776L240.426 7.33595C243.233 6.50415 246.024 6.27145 248.81 6.62774L249 5.13985L249.19 3.65197C245.976 3.24098 242.767 3.51355 239.574 4.45956L240 5.89776ZM249 5.13985L248.81 6.62774C252.014 7.03751 255.215 6.7948 258.402 5.90763L258 4.46258L257.598 3.01753C254.785 3.80067 251.986 4.00948 249.19 3.65197L249 5.13985ZM258 4.46258L258.402 5.90763C261.194 5.13043 263.97 4.98323 266.747 5.4583L267 3.97979L267.253 2.50127C264.03 1.94976 260.806 2.12442 257.598 3.01753L258 4.46258ZM267 3.97979L266.747 5.4583C269.923 6.00173 273.103 5.97453 276.277 5.37734L276 3.9032L275.723 2.42906C272.897 2.96057 270.077 2.98442 267.253 2.50127L267 3.97979ZM276 3.9032L276.277 5.37734C278.828 4.89757 281.437 5.4718 284.174 7.27676L285 6.02457L285.826 4.77239C282.563 2.62016 279.172 1.78014 275.723 2.42906L276 3.9032ZM285 6.02457L284.174 7.27676C287.498 9.46923 290.973 10.0837 294.473 8.92105L294 7.49754L293.527 6.07404C291.027 6.90464 288.502 6.53711 285.826 4.77239L285 6.02457ZM294 7.49754L294.473 8.92105C297.341 7.9684 300.195 7.45807 303.04 7.38241L303 5.88294L302.96 4.38347C299.805 4.46738 296.659 5.03346 293.527 6.07404L294 7.49754ZM303 5.88294L303.04 7.38241C306.191 7.29858 309.334 6.74349 312.464 5.72421L312 4.29792L311.536 2.87164C308.666 3.80612 305.809 4.30771 302.96 4.38347L303 5.88294ZM312 4.29792L312.464 5.72421C315.244 4.81909 318 4.60329 320.753 5.06206L321 3.58246L321.247 2.10286C318 1.56182 314.756 1.82298 311.536 2.87164L312 4.29792ZM321 3.58246L320.753 5.06206C323.834 5.57539 326.917 5.83192 330 5.83104L330 4.33104L330 2.83104C327.083 2.83187 324.166 2.58936 321.247 2.10286L321 3.58246ZM330 4.33104L330 5.83104C333.088 5.83015 336.173 5.56154 339.257 5.02596L339 3.54809L338.743 2.07022C335.827 2.57684 332.912 2.8302 330 2.83104L330 4.33104ZM339 3.54809L339.257 5.02596C342.168 4.52027 345.077 4.28344 347.984 4.31462L348 2.81471L348.016 1.31479C344.923 1.28162 341.832 1.53371 338.743 2.07022L339 3.54809ZM348 2.81471L347.984 4.31462C350.743 4.34422 353.53 5.01578 356.354 6.36265L357 5.00869L357.646 3.65474C354.47 2.14065 351.257 1.34955 348.016 1.31479L348 2.81471ZM357 5.00869L356.354 6.36265C359.706 7.96065 363.128 8.148 366.524 6.88028L366 5.47496L365.476 4.06964C362.872 5.04119 360.294 4.91769 357.646 3.65474L357 5.00869ZM366 5.47496L366.524 6.88028C369.07 5.93015 371.606 6.15772 374.255 7.67445L375 6.37282L375.745 5.07119C372.394 3.15151 368.93 2.78051 365.476 4.06964L366 5.47496ZM375 6.37282L374.255 7.67445C377.65 9.61919 381.159 9.84158 384.623 8.25975L384 6.89527L383.377 5.5308C380.841 6.68877 378.35 6.56285 375.745 5.07119L375 6.37282ZM384 6.89527L384.623 8.25975C387.506 6.94323 390.371 6.07914 393.22 5.65624L393 4.17249L392.78 2.68875C389.629 3.15642 386.494 4.10751 383.377 5.5308L384 6.89527ZM393 4.17249L393.22 5.65624C394.685 5.43879 395.728 5.37329 396.401 5.41772C396.741 5.44011 396.906 5.48602 396.958 5.50617C397.012 5.52725 396.803 5.4624 396.659 5.17433L398 4.50228L399.341 3.83023C399.03 3.20959 398.488 2.88157 398.042 2.70888C397.594 2.53526 397.093 2.4568 396.599 2.42423C395.606 2.35873 394.315 2.46092 392.78 2.68875L393 4.17249ZM398 4.50228L396.608 5.06047L397.008 6.05818L398.4 5.5L399.792 4.94182L399.392 3.9441L398 4.50228ZM398.4 5.5V7H398.5V5.5V4H398.4V5.5Z" fill="#CAD4DE"/>
</svg>
