<svg width="400" height="11" viewBox="0 0 400 11" fill="none" xmlns="http://www.w3.org/2000/svg">
<path d="M1.5 4C0.671573 4 0 4.67157 0 5.5C0 6.32843 0.671573 7 1.5 7V4ZM1.6 5.5V7H1.84858L2.08387 6.91981L1.6 5.5ZM15 2.85106L14.8724 4.34563L15 2.85106ZM33 6.86688L32.5162 8.28672L33 6.86688ZM114 3.54443L113.562 2.10989L114 3.54443ZM213 4.86164L213.273 3.38668L213 4.86164ZM348 5.33651L347.416 3.95494L348 5.33651ZM357 4.47554L356.662 5.93689L357 4.47554ZM375 4.45239L374.865 5.94633L375 4.45239ZM398 4.18609L399.435 3.74924L399.42 3.70036L399.402 3.6526L398 4.18609ZM398.4 5.5L396.965 5.93686L397.289 7H398.4V5.5ZM398.5 7C399.328 7 400 6.32843 400 5.5C400 4.67157 399.328 4 398.5 4V7ZM1.5 5.5V7H1.6V5.5V4H1.5V5.5ZM1.6 5.5L2.08387 6.91981C7.98774 4.90778 12.2026 4.11769 14.8724 4.34563L15 2.85106L15.1276 1.3565C11.7974 1.0722 7.07893 2.04807 1.11613 4.08019L1.6 5.5ZM15 2.85106L14.8724 4.34563C17.7991 4.59548 20.7279 5.06175 23.6594 5.74523L24 4.28441L24.3406 2.82359C21.2721 2.10818 18.2009 1.61888 15.1276 1.3565L15 2.85106ZM24 4.28441L23.6594 5.74523C26.6097 6.43308 29.5619 7.28008 32.5162 8.28672L33 6.86688L33.4838 5.44704C30.4381 4.40928 27.3903 3.53464 24.3406 2.82359L24 4.28441ZM33 6.86688L32.5162 8.28672C35.7021 9.37224 38.9099 9.78542 42.1274 9.51112L42 8.01654L41.8726 6.52196C39.0901 6.75917 36.2979 6.40591 33.4838 5.44704L33 6.86688ZM42 8.01654L42.1274 9.51112C45.0096 9.26541 47.8919 9.35933 50.7767 9.7936L51 8.31032L51.2233 6.82703C48.1081 6.35808 44.9904 6.25616 41.8726 6.52196L42 8.01654ZM51 8.31032L50.7767 9.7936C54.1808 10.3061 57.5337 9.50026 60.7841 7.50721L60 6.22846L59.2159 4.94971C56.4663 6.63568 53.8192 7.2178 51.2233 6.82703L51 8.31032ZM60 6.22846L60.7841 7.50721C63.4395 5.87897 65.9639 5.59925 68.4864 6.51856L69 5.10924L69.5136 3.69992C66.036 2.43249 62.5605 2.89892 59.2159 4.94971L60 6.22846ZM69 5.10924L68.4864 6.51856C71.63 7.66427 74.7912 8.28009 77.9647 8.35475L78 6.85516L78.0353 5.35558C75.2088 5.28908 72.37 4.74096 69.5136 3.69992L69 5.10924ZM78 6.85516L77.9647 8.35475C81.176 8.4303 84.3719 7.84377 87.5425 6.61378L87 5.21532L86.4575 3.81686C83.6281 4.91448 80.824 5.42118 78.0353 5.35558L78 6.85516ZM87 5.21532L87.5425 6.61378C90.3548 5.5228 93.1384 5.07443 95.9069 5.24664L96 3.74954L96.0931 2.25243C92.8616 2.05141 89.6452 2.58023 86.4575 3.81686L87 5.21532ZM96 3.74954L95.9069 5.24664C98.8886 5.43212 101.87 5.67227 104.852 5.96707L105 4.47435L105.148 2.98163C102.13 2.68325 99.1114 2.44018 96.0931 2.25243L96 3.74954ZM105 4.47435L104.852 5.96707C108.058 6.28396 111.257 5.95103 114.438 4.97898L114 3.54443L113.562 2.10989C110.743 2.97092 107.942 3.25794 105.148 2.98163L105 4.47435ZM114 3.54443L114.438 4.97898C117.243 4.12213 120.029 3.87656 122.81 4.23094L123 2.74297L123.19 1.255C119.971 0.844913 116.757 1.13365 113.562 2.10989L114 3.54443ZM123 2.74297L122.81 4.23094C125.909 4.62578 129.01 4.70887 132.111 4.47982L132 2.9839L131.889 1.48797C128.99 1.70216 126.091 1.62462 123.19 1.255L123 2.74297ZM132 2.9839L132.111 4.47982C134.841 4.27814 137.594 4.78253 140.388 6.03047L141 4.6608L141.612 3.29114C138.406 1.85997 135.159 1.24643 131.889 1.48797L132 2.9839ZM141 4.6608L140.388 6.03047C143.524 7.43062 146.683 8.28822 149.859 8.58757L150 7.09418L150.141 5.6008C147.317 5.33475 144.476 4.57009 141.612 3.29114L141 4.6608ZM150 7.09418L149.859 8.58757C153.076 8.89073 156.285 8.50602 159.473 7.44763L159 6.02405L158.527 4.60048C155.715 5.53432 152.924 5.86303 150.141 5.6008L150 7.09418ZM159 6.02405L159.473 7.44763C162.448 6.45976 165.422 5.55854 168.396 4.74389L168 3.29719L167.604 1.85049C164.578 2.67942 161.552 3.59611 158.527 4.60048L159 6.02405ZM168 3.29719L168.396 4.74389C170.927 4.0506 173.494 4.47694 176.194 6.19731L177 4.93235L177.806 3.6674C174.506 1.56397 171.073 0.9002 167.604 1.85049L168 3.29719ZM177 4.93235L176.194 6.19731C179.506 8.30809 182.954 8.93013 186.431 7.88715L186 6.45039L185.569 5.01364C183.046 5.77039 180.494 5.3804 177.806 3.6674L177 4.93235ZM186 6.45039L186.431 7.88715C189.281 7.03219 192.118 6.65781 194.948 6.75628L195 5.25718L195.052 3.75809C191.882 3.64776 188.719 4.06886 185.569 5.01364L186 6.45039ZM195 5.25718L194.948 6.75628C198.043 6.86397 201.136 6.67966 204.228 6.204L204 4.72144L203.772 3.23888C200.864 3.68634 197.957 3.85919 195.052 3.75809L195 5.25718ZM204 4.72144L204.228 6.204C207.061 5.76815 209.892 5.81202 212.727 6.33661L213 4.86164L213.273 3.38668C210.108 2.80121 206.939 2.75161 203.772 3.23888L204 4.72144ZM213 4.86164L212.727 6.33661C216.023 6.94638 219.311 6.58496 222.558 5.28462L222 3.89213L221.442 2.49963C218.689 3.60204 215.977 3.88696 213.273 3.38668L213 4.86164ZM222 3.89213L222.558 5.28462C225.356 4.16407 228.121 3.737 230.87 3.97658L231 2.48224L231.13 0.987904C227.879 0.704576 224.644 1.21743 221.442 2.49963L222 3.89213ZM231 2.48224L230.87 3.97658C233.571 4.21198 236.332 5.24076 239.163 7.14372L240 5.89876L240.837 4.65381C237.668 2.5243 234.429 1.2754 231.13 0.987904L231 2.48224ZM240 5.89876L239.163 7.14372C242.5 9.38655 245.998 9.9744 249.513 8.69606L249 7.2864L248.487 5.87675C246.002 6.78069 243.5 6.44344 240.837 4.65381L240 5.89876ZM249 7.2864L249.513 8.69606C252.416 7.63995 255.311 6.92196 258.198 6.53787L258 5.05097L257.802 3.56407C254.689 3.97828 251.584 4.75058 248.487 5.87675L249 7.2864ZM258 5.05097L258.198 6.53787C261.188 6.14002 264.178 5.77226 267.168 5.43458L267 3.94405L266.832 2.45353C263.822 2.79344 260.812 3.16362 257.802 3.56407L258 5.05097ZM267 3.94405L267.168 5.43458C269.821 5.13501 272.513 5.70156 275.279 7.21787L276 5.90252L276.721 4.58717C273.487 2.8146 270.179 2.0755 266.832 2.45353L267 3.94405ZM276 5.90252L275.279 7.21787C278.452 8.95731 281.675 9.92222 284.934 10.0654L285 8.56686L285.066 7.0683C282.325 6.94792 279.548 6.13662 276.721 4.58717L276 5.90252ZM285 8.56686L284.934 10.0654C288.302 10.2134 291.606 9.18521 294.817 7.1001L294 5.84211L293.183 4.58411C290.394 6.39557 287.698 7.18391 285.066 7.0683L285 8.56686ZM294 5.84211L294.817 7.1001C297.513 5.3491 300.07 4.92463 302.59 5.63996L303 4.19696L303.41 2.75396C299.93 1.76624 296.487 2.43855 293.183 4.58411L294 5.84211ZM303 4.19696L302.59 5.63996C305.902 6.58001 309.226 6.44041 312.515 5.238L312 3.82918L311.485 2.42037C308.774 3.41136 306.098 3.51694 303.41 2.75396L303 4.19696ZM312 3.82918L312.515 5.238C315.038 4.31585 317.561 4.59368 320.216 6.22034L321 4.94132L321.784 3.66231C318.439 1.6127 314.962 1.1491 311.485 2.42037L312 3.82918ZM321 4.94132L320.216 6.22034C323.412 8.17863 326.683 9.19325 330.007 9.17839L330 7.67841L329.993 6.17842C327.317 6.19038 324.588 5.38028 321.784 3.66231L321 4.94132ZM330 7.67841L330.007 9.17839C333.028 9.16489 336.049 9.08781 339.07 8.94718L339 7.4488L338.93 5.95042C335.951 6.08911 332.972 6.1651 329.993 6.17842L330 7.67841ZM339 7.4488L339.07 8.94718C342.261 8.7986 345.435 8.04978 348.584 6.71808L348 5.33651L347.416 3.95494C344.565 5.1603 341.739 5.81967 338.93 5.95042L339 7.4488ZM348 5.33651L348.584 6.71808C351.311 5.5652 353.988 5.31795 356.662 5.93689L357 4.47554L357.338 3.01419C354.012 2.24403 350.689 2.57076 347.416 3.95494L348 5.33651ZM357 4.47554L356.662 5.93689C359.849 6.67491 363.047 6.78455 366.242 6.26243L366 4.78207L365.758 3.3017C362.953 3.75998 360.151 3.66527 357.338 3.01419L357 4.47554ZM366 4.78207L366.242 6.26243C369.119 5.79238 371.992 5.68734 374.865 5.94633L375 4.45239L375.135 2.95845C372.008 2.67661 368.881 2.79135 365.758 3.3017L366 4.78207ZM375 4.45239L374.865 5.94633C378.071 6.23527 381.269 5.87475 384.449 4.87627L384 3.44515L383.551 2.01403C380.731 2.89936 377.929 3.21033 375.135 2.95845L375 4.45239ZM384 3.44515L384.449 4.87627C387.268 3.99141 390.068 3.68511 392.861 3.94575L393 2.45224L393.139 0.95873C389.932 0.659441 386.732 1.01508 383.551 2.01403L384 3.44515ZM393 2.45224L392.861 3.94575C394.312 4.08123 395.341 4.28153 396.009 4.51289C396.762 4.77431 396.683 4.94368 396.598 4.71959L398 4.18609L399.402 3.6526C398.983 2.55257 397.904 1.99499 396.991 1.67847C395.992 1.33187 394.688 1.10322 393.139 0.95873L393 2.45224ZM398 4.18609L396.565 4.62295L396.965 5.93686L398.4 5.5L399.835 5.06314L399.435 3.74924L398 4.18609ZM398.4 5.5V7H398.5V5.5V4H398.4V5.5Z" fill="#CAD4DE"/>
</svg>
