<svg width="400" height="10" viewBox="0 0 400 10" fill="none" xmlns="http://www.w3.org/2000/svg">
<path d="M1.5 4C0.671573 4 0 4.67157 0 5.5C0 6.32843 0.671573 7 1.5 7V4ZM1.6 5.5L1.8476 4.02058L1.72466 4H1.6V5.5ZM33 4.22648L32.5085 2.80929L33 4.22648ZM276 4.68619L275.671 6.14973L276 4.68619ZM398 4.04495L399.446 3.64734L399.434 3.60198L399.419 3.55748L398 4.04495ZM398.4 5.5L396.954 5.89761L397.257 7H398.4V5.5ZM398.5 7C399.328 7 400 6.32843 400 5.5C400 4.67157 399.328 4 398.5 4V7ZM1.5 5.5V7H1.6V5.5V4H1.5V5.5ZM1.6 5.5L1.3524 6.97942C7.37308 7.98707 12.2143 7.84379 15.6354 6.24398L15 4.88521L14.3646 3.52643C11.7857 4.73241 7.69358 4.99899 1.8476 4.02058L1.6 5.5ZM15 4.88521L15.6354 6.24398C18.3052 4.9955 20.908 4.83265 23.5248 5.7067L24 4.28397L24.4752 2.86124C21.092 1.73115 17.6948 1.96912 14.3646 3.52643L15 4.88521ZM24 4.28397L23.5248 5.7067C26.8401 6.8141 30.18 6.79209 33.4915 5.64368L33 4.22648L32.5085 2.80929C29.82 3.74166 27.1599 3.75797 24.4752 2.86124L24 4.28397ZM33 4.22648L33.4915 5.64368C36.2231 4.69636 38.9251 4.57137 41.6339 5.25313L42 3.7985L42.3661 2.34387C39.0749 1.5155 35.7769 1.67582 32.5085 2.80929L33 4.22648ZM42 3.7985L41.6339 5.25313C44.7029 6.02559 47.775 6.56714 50.8497 6.87686L51 5.38442L51.1503 3.89197C48.225 3.59728 45.297 3.08155 42.3661 2.34387L42 3.7985ZM51 5.38442L50.8497 6.87686C53.8187 7.17595 56.7881 7.56832 59.7579 8.05401L60 6.57368L60.2421 5.09334C57.2119 4.59777 54.1813 4.19729 51.1503 3.89197L51 5.38442ZM60 6.57368L59.7579 8.05401C62.9047 8.56866 66.0549 8.61072 69.2035 8.17962L69 6.69348L68.7965 5.20735C65.9451 5.59777 63.0953 5.55997 60.2421 5.09334L60 6.57368ZM69 6.69348L69.2035 8.17962C72.2444 7.76325 75.2845 7.21913 78.3237 6.54743L78 5.08278L77.6763 3.61812C74.7155 4.2725 71.7556 4.80219 68.7965 5.20735L69 6.69348ZM78 5.08278L78.3237 6.54743C81.0356 5.94808 83.7468 6.13329 86.4905 7.1241L87 5.71327L87.5095 4.30245C84.2532 3.12652 80.9644 2.8914 77.6763 3.61812L78 5.08278ZM87 5.71327L86.4905 7.1241C89.6136 8.25192 92.7504 8.92741 95.8976 9.14281L96 7.64631L96.1024 6.14981C93.2496 5.95456 90.3864 5.34136 87.5095 4.30245L87 5.71327ZM96 7.64631L95.8976 9.14281C99.07 9.35994 102.237 9.03678 105.393 8.17968L105 6.73212L104.607 5.28456C101.763 6.05703 98.93 6.34334 96.1024 6.14981L96 7.64631ZM105 6.73212L105.393 8.17968C108.13 7.43646 110.853 7.45177 113.591 8.22714L114 6.78386L114.409 5.34058C111.147 4.41738 107.87 4.3982 104.607 5.28456L105 6.73212ZM114 6.78386L113.591 8.22714C116.716 9.11168 119.85 9.56704 122.99 9.58848L123 8.08852L123.01 6.58855C120.15 6.56902 117.284 6.15462 114.409 5.34058L114 6.78386ZM123 8.08852L122.99 9.58848C126.253 9.61076 129.485 8.80406 132.671 7.21119L132 5.86952L131.329 4.52785C128.515 5.93461 125.747 6.60724 123.01 6.58855L123 8.08852ZM132 5.86952L132.671 7.21119C135.218 5.93761 137.697 5.99256 140.276 7.41456L141 6.10101L141.724 4.78745C138.303 2.90117 134.782 2.8018 131.329 4.52785L132 5.86952ZM141 6.10101L140.276 7.41456C143.619 9.25805 147.064 9.61854 150.502 8.39792L150 6.98438L149.498 5.57084C146.936 6.48067 144.381 6.25225 141.724 4.78745L141 6.10101ZM150 6.98438L150.502 8.39792C153.333 7.39271 156.143 6.95298 158.94 7.06412L159 5.5653L159.06 4.06648C155.857 3.93928 152.667 4.44561 149.498 5.57084L150 6.98438ZM159 5.5653L158.94 7.06412C161.819 7.17846 164.703 7.64031 167.594 8.45313L168 7.0091L168.406 5.56508C165.297 4.69117 162.181 4.19049 159.06 4.06648L159 5.5653ZM168 7.0091L167.594 8.45313C170.913 9.38604 174.241 9.21835 177.532 7.97113L177 6.56851L176.468 5.16588C173.759 6.19284 171.087 6.31889 168.406 5.56508L168 7.0091ZM177 6.56851L177.532 7.97113C180.285 6.92762 183.002 6.68169 185.715 7.20703L186 5.7344L186.285 4.26176C182.998 3.62507 179.715 3.93521 176.468 5.16588L177 6.56851ZM186 5.7344L185.715 7.20703C188.678 7.78093 191.642 8.4701 194.607 9.27469L195 7.82705L195.393 6.3794C192.358 5.55584 189.322 4.84991 186.285 4.26176L186 5.7344ZM195 7.82705L194.607 9.27469C197.976 10.1887 201.341 9.83817 204.64 8.28164L204 6.92505L203.36 5.56846C200.659 6.84275 198.024 7.09352 195.393 6.3794L195 7.82705ZM204 6.92505L204.64 8.28164C207.58 6.89469 210.514 5.74979 213.443 4.8451L213 3.41191L212.557 1.97873C209.486 2.92739 206.42 4.12458 203.36 5.56846L204 6.92505ZM213 3.41191L213.443 4.8451C215.917 4.08065 218.439 4.52683 221.132 6.4366L222 5.21303L222.868 3.98946C219.561 1.64438 216.083 0.889816 212.557 1.97873L213 3.41191ZM222 5.21303L221.132 6.4366C224.492 8.81939 228.039 9.37959 231.587 7.87057L231 6.49023L230.413 5.10989C227.961 6.15278 225.508 5.86151 222.868 3.98946L222 5.21303ZM231 6.49023L231.587 7.87057C234.276 6.72694 236.913 6.57728 239.561 7.38762L240 5.95327L240.439 4.51892C237.087 3.49329 233.724 3.7016 230.413 5.10989L231 6.49023ZM240 5.95327L239.561 7.38762C242.832 8.38849 246.123 8.4368 249.401 7.52815L249 6.08267L248.599 4.63719C245.877 5.39198 243.168 5.35402 240.439 4.51892L240 5.95327ZM249 6.08267L249.401 7.52815C252.382 6.70149 255.364 5.93576 258.345 5.23092L258 3.77116L257.655 2.31141C254.636 3.02514 251.618 3.80041 248.599 4.63719L249 6.08267ZM258 3.77116L258.345 5.23092C261.183 4.5599 264.012 4.37859 266.84 4.68275L267 3.19136L267.16 1.69996C263.988 1.35862 260.817 1.56385 257.655 2.31141L258 3.77116ZM267 3.19136L266.84 4.68275C269.782 4.9993 272.726 5.48815 275.671 6.14973L276 4.68619L276.329 3.22265C273.274 2.53661 270.218 2.02891 267.16 1.69996L267 3.19136ZM276 4.68619L275.671 6.14973C278.614 6.8106 281.559 7.65416 284.507 8.68114L285 7.26464L285.493 5.84814C282.441 4.78479 279.386 3.90939 276.329 3.22265L276 4.68619ZM285 7.26464L284.507 8.68114C288.075 9.92452 291.594 9.12399 294.908 6.60266L294 5.40887L293.092 4.21507C290.406 6.25844 287.925 6.69509 285.493 5.84814L285 7.26464ZM294 5.40887L294.908 6.60266C297.697 4.48065 300.352 3.59943 302.91 3.75323L303 2.25593L303.09 0.758638C299.648 0.551647 296.303 1.77239 293.092 4.21507L294 5.40887ZM303 2.25593L302.91 3.75323C305.787 3.92621 308.67 4.4524 311.562 5.33586L312 3.90131L312.438 2.46676C309.33 1.51717 306.213 0.94644 303.09 0.758638L303 2.25593ZM312 3.90131L311.562 5.33586C314.653 6.28013 317.75 6.90721 320.852 7.21446L321 5.72177L321.148 4.22907C318.25 3.9421 315.347 3.35554 312.438 2.46676L312 3.90131ZM321 5.72177L320.852 7.21446C323.9 7.51627 326.947 7.67184 329.995 7.6811L330 6.18111L330.005 4.68112C327.053 4.67215 324.1 4.52149 321.148 4.22907L321 5.72177ZM330 6.18111L329.995 7.6811C333.007 7.69026 336.02 7.66319 339.032 7.59992L339 6.10025L338.969 4.60058C335.981 4.66335 332.993 4.6902 330.005 4.68112L330 6.18111ZM339 6.10025L339.032 7.59992C342.106 7.53533 345.18 7.24152 348.252 6.71901L348 5.24025L347.748 3.76149C344.82 4.25961 341.894 4.53913 338.969 4.60058L339 6.10025ZM348 5.24025L348.252 6.71901C350.904 6.2678 353.582 6.69597 356.327 8.07374L357 6.73309L357.673 5.39244C354.418 3.75913 351.096 3.19207 347.748 3.76149L348 5.24025ZM357 6.73309L356.327 8.07374C359.679 9.75583 363.112 9.99242 366.523 8.72381L366 7.31789L365.477 5.91196C362.888 6.8747 360.321 6.72143 357.673 5.39244L357 6.73309ZM366 7.31789L366.523 8.72381C369.513 7.61179 372.503 6.53548 375.493 5.49486L375 4.07821L374.507 2.66156C371.497 3.70917 368.487 4.79264 365.477 5.91196L366 7.31789ZM375 4.07821L375.493 5.49486C378.078 4.59509 380.652 4.79405 383.312 6.16595L384 4.8328L384.688 3.49965C381.348 1.77721 377.922 1.47311 374.507 2.66156L375 4.07821ZM384 4.8328L383.312 6.16595C386.739 7.933 390.247 7.94955 393.678 6.20956L393 4.87173L392.322 3.53389C389.753 4.83634 387.261 4.82694 384.688 3.49965L384 4.8328ZM393 4.87173L393.678 6.20956C395.149 5.46382 396.147 5.10283 396.745 5.00402C397.047 4.95409 397.095 4.99822 397.008 4.96799C396.839 4.90932 396.653 4.74161 396.581 4.53242L398 4.04495L399.419 3.55748C399.18 2.86327 398.661 2.36625 397.992 2.13397C397.405 1.93013 396.787 1.95635 396.255 2.04421C395.186 2.221 393.851 2.75841 392.322 3.53389L393 4.87173ZM398 4.04495L396.554 4.44255L396.954 5.89761L398.4 5.5L399.846 5.10239L399.446 3.64734L398 4.04495ZM398.4 5.5V7H398.5V5.5V4H398.4V5.5Z" fill="#0044FF"/>
</svg>
