<svg width="16" height="16" viewBox="0 0 16 16" fill="none" xmlns="http://www.w3.org/2000/svg">
<path fill-rule="evenodd" clip-rule="evenodd" d="M8.15704 2.44895C8.46135 2.12863 8.96771 2.11564 9.28804 2.41995L14.5512 7.41995C14.7102 7.57099 14.8002 7.78066 14.8002 7.99995C14.8002 8.21924 14.7102 8.42892 14.5512 8.57995L9.28804 13.58C8.96771 13.8843 8.46135 13.8713 8.15704 13.551C7.85273 13.2306 7.86571 12.7243 8.18604 12.42L11.9966 8.79995H2.0002C1.55837 8.79995 1.2002 8.44178 1.2002 7.99995C1.2002 7.55813 1.55837 7.19995 2.0002 7.19995H11.9966L8.18604 3.57995C7.86571 3.27564 7.85273 2.76928 8.15704 2.44895Z" fill="white"/>
</svg>
