<svg width="20" height="20" viewBox="0 0 20 20" fill="none" xmlns="http://www.w3.org/2000/svg">
<path d="M18.1191 0.474619C18.5118 0.154269 19.0908 0.176863 19.457 0.542978C19.8231 0.909094 19.8457 1.4881 19.5253 1.88087L19.457 1.95704L11.414 10L19.457 18.043L19.5253 18.1192C19.8457 18.5119 19.8231 19.0909 19.457 19.457C19.0908 19.8232 18.5118 19.8458 18.1191 19.5254L18.0429 19.457L9.99992 11.4141L1.95696 19.457C1.56643 19.8476 0.933418 19.8476 0.542893 19.457C0.152369 19.0665 0.152369 18.4335 0.542893 18.043L8.58586 10L0.542893 1.95704L0.474534 1.88087C0.154183 1.4881 0.176777 0.909094 0.542893 0.542978C0.909009 0.176863 1.48801 0.154269 1.88078 0.474619L1.95696 0.542978L9.99992 8.58595L18.0429 0.542978L18.1191 0.474619Z" fill="#2B2E3A"/>
</svg>
