<svg width="28" height="24" viewBox="0 0 28 24" fill="none" xmlns="http://www.w3.org/2000/svg">
<path opacity="0.4" d="M9.32914 15.6001L8.80892 20.5289C8.80892 20.5289 8.59116 22.0391 10.2849 20.5289C11.9786 19.0187 13.5998 17.8541 13.5998 17.8541" fill="white"/>
<path d="M5.9007 13.6577L0.480567 11.8737C0.480567 11.8737 -0.167199 11.6082 0.0413813 11.0061C0.0843189 10.882 0.170934 10.7763 0.43004 10.5948C1.631 9.74912 22.6588 2.11382 22.6588 2.11382C22.6588 2.11382 23.2525 1.91171 23.6026 2.04614C23.6893 2.07323 23.7672 2.12308 23.8285 2.19059C23.8898 2.2581 23.9323 2.34084 23.9515 2.43036C23.9893 2.58848 24.0052 2.75115 23.9985 2.91368C23.9969 3.05428 23.98 3.1846 23.9672 3.38896C23.8392 5.47648 20.0066 21.0563 20.0066 21.0563C20.0066 21.0563 19.7773 21.968 18.9558 21.9992C18.7539 22.0058 18.5527 21.9712 18.3643 21.8976C18.1759 21.824 18.0041 21.7128 17.8592 21.5707C16.247 20.1697 10.6747 16.3866 9.44342 15.5545C9.41565 15.5354 9.39225 15.5105 9.37482 15.4815C9.35739 15.4524 9.34632 15.42 9.34237 15.3863C9.32516 15.2986 9.41954 15.1899 9.41954 15.1899C9.41954 15.1899 19.1223 6.47714 19.3805 5.56248C19.4005 5.49162 19.325 5.45666 19.2236 5.4877C18.5791 5.7272 7.40759 12.8543 6.17461 13.6409C6.08586 13.668 5.99205 13.6738 5.9007 13.6577Z" fill="white"/>
</svg>
