<svg width="400" height="10" viewBox="0 0 400 10" fill="none" xmlns="http://www.w3.org/2000/svg">
<path d="M1.5 3C0.671573 3 0 3.67157 0 4.5C0 5.32843 0.671573 6 1.5 6V3ZM1.6 4.5L2.05014 3.06914L1.83038 3H1.6V4.5ZM33 6.05471L32.7152 7.52742L33 6.05471ZM398 4.13401L399.013 3.02735L398.952 2.97203L398.886 2.92362L398 4.13401ZM398.4 4.5L397.387 5.60667L397.817 6H398.4V4.5ZM398.5 6C399.328 6 400 5.32843 400 4.5C400 3.67157 399.328 3 398.5 3V6ZM1.5 4.5V6H1.6V4.5V3H1.5V4.5ZM1.6 4.5L1.14986 5.93086C7.10498 7.80432 11.7325 8.84626 14.9449 8.96441L15 7.46542L15.0551 5.96643C12.2675 5.8639 7.96169 4.92889 2.05014 3.06914L1.6 4.5ZM15 7.46542L14.9449 8.96441C18.1015 9.08051 21.2526 8.70893 24.3935 7.85513L24 6.40766L23.6065 4.96019C20.7474 5.73742 17.8985 6.07101 15.0551 5.96643L15 7.46542ZM24 6.40766L24.3935 7.85513C27.1763 7.09866 29.9443 6.99151 32.7152 7.52742L33 6.05471L33.2848 4.582C30.0557 3.95748 26.8237 4.08562 23.6065 4.96019L24 6.40766ZM33 6.05471L32.7152 7.52742C35.8484 8.13342 38.9867 8.30494 42.1261 8.04008L42 6.54539L41.8739 5.0507C39.0133 5.29204 36.1516 5.13645 33.2848 4.582L33 6.05471ZM42 6.54539L42.1261 8.04008C45.2459 7.77687 48.3589 7.13955 51.463 6.13228L51 4.70551L50.537 3.27875C47.6411 4.21845 44.7541 4.80771 41.8739 5.0507L42 6.54539ZM51 4.70551L51.463 6.13228C54.0562 5.2908 56.6447 5.51576 59.3169 6.88273L60 5.54732L60.6831 4.21192C57.3553 2.50951 53.9438 2.17326 50.537 3.27875L51 4.70551ZM60 5.54732L59.3169 6.88273C62.509 8.51573 65.7513 9.32712 69.0269 9.26827L69 7.76851L68.9731 6.26876C66.2487 6.3177 63.491 5.64831 60.6831 4.21192L60 5.54732ZM69 7.76851L69.0269 9.26827C72.0141 9.2146 75.0013 9.19922 77.9885 9.22214L78 7.72218L78.0115 6.22223C74.9987 6.19912 71.9859 6.21463 68.9731 6.26876L69 7.76851ZM78 7.72218L77.9885 9.22214C81.1297 9.24623 84.2654 8.8325 87.3922 7.98541L87 6.5376L86.6078 5.08979C83.7346 5.86816 80.8703 6.24416 78.0115 6.22223L78 7.72218ZM87 6.5376L87.3922 7.98541C90.1357 7.24218 92.8652 7.24136 95.6086 7.9829L96 6.53487L96.3914 5.08683C93.1348 4.20655 89.8643 4.20756 86.6078 5.08979L87 6.5376ZM96 6.53487L95.6086 7.9829C98.9004 8.87268 102.203 8.7608 105.478 7.65855L105 6.23689L104.522 4.81523C101.797 5.73211 99.0996 5.81888 96.3914 5.08683L96 6.53487ZM105 6.23689L105.478 7.65855C108.366 6.68672 111.244 6.09519 114.113 5.8786L114 4.38286L113.887 2.88711C110.756 3.12345 107.634 3.76794 104.522 4.81523L105 6.23689ZM114 4.38286L114.113 5.8786C116.884 5.6694 119.668 6.0754 122.479 7.11623L123 5.70959L123.521 4.30294C120.332 3.12187 117.116 2.64338 113.887 2.88711L114 4.38286ZM123 5.70959L122.479 7.11623C125.673 8.29892 128.894 8.76286 132.127 8.48775L132 6.99315L131.873 5.49855C129.106 5.73393 126.327 5.34215 123.521 4.30294L123 5.70959ZM132 6.99315L132.127 8.48775C135.19 8.22714 138.252 7.77173 141.312 7.12201L141 5.65473L140.688 4.18744C137.748 4.81181 134.81 5.24868 131.873 5.49855L132 6.99315ZM141 5.65473L141.312 7.12201C144.195 6.5097 147.073 6.25342 149.949 6.35102L150 4.85188L150.051 3.35274C146.927 3.24671 143.805 3.52566 140.688 4.18744L141 5.65473ZM150 4.85188L149.949 6.35102C152.893 6.45092 155.837 6.71705 158.782 7.14963L159 5.66555L159.218 4.18148C156.163 3.73279 153.107 3.45648 150.051 3.35274L150 4.85188ZM159 5.66555L158.782 7.14963C161.941 7.61358 165.101 7.5695 168.258 7.01817L168 5.54053L167.742 4.0629C164.899 4.55953 162.059 4.5988 159.218 4.18148L159 5.66555ZM168 5.54053L168.258 7.01817C171.009 6.53774 173.762 6.74004 176.538 7.63943L177 6.21245L177.462 4.78547C174.238 3.74102 170.991 3.49537 167.742 4.0629L168 5.54053ZM177 6.21245L176.538 7.63943C179.711 8.66749 182.903 9.07736 186.103 8.85712L186 7.36066L185.897 5.8642C183.097 6.05686 180.289 5.70127 177.462 4.78547L177 6.21245ZM186 7.36066L186.103 8.85712C189.272 8.63903 192.426 7.89053 195.562 6.62404L195 5.23322L194.438 3.84241C191.574 4.99959 188.728 5.66938 185.897 5.8642L186 7.36066ZM195 5.23322L195.562 6.62404C198.15 5.57839 200.705 5.68259 203.336 6.981L204 5.63583L204.664 4.29067C201.295 2.62858 197.85 2.46438 194.438 3.84241L195 5.23322ZM204 5.63583L203.336 6.981C206.817 8.69851 210.356 8.49374 213.77 6.45236L213 5.16501L212.23 3.87766C209.644 5.42453 207.183 5.53365 204.664 4.29067L204 5.63583ZM213 5.16501L213.77 6.45236C216.614 4.75141 219.41 3.77244 222.164 3.46888L222 1.97791L221.836 0.486933C218.59 0.844591 215.386 1.99035 212.23 3.87766L213 5.16501ZM222 1.97791L222.164 3.46888C224.955 3.16137 227.751 3.42934 230.564 4.28353L231 2.84822L231.436 1.41291C228.249 0.445472 225.045 0.133229 221.836 0.486933L222 1.97791ZM231 2.84822L230.564 4.28353C233.754 5.25202 236.962 5.55315 240.175 5.17602L240 3.68625L239.825 2.19647C237.038 2.52362 234.246 2.26606 231.436 1.41291L231 2.84822ZM240 3.68625L240.175 5.17602C243.048 4.83882 245.919 4.87011 248.793 5.27021L249 3.78454L249.207 2.29887C246.081 1.86364 242.952 1.8294 239.825 2.19647L240 3.68625ZM249 3.78454L248.793 5.27021C251.882 5.70032 254.973 5.84838 258.065 5.71391L258 4.21532L257.935 2.71674C255.026 2.84323 252.118 2.70411 249.207 2.29887L249 3.78454ZM258 4.21532L258.065 5.71391C260.816 5.59424 263.589 6.1332 266.399 7.36195L267 5.98763L267.601 4.61331C264.411 3.21802 261.184 2.57544 257.935 2.71674L258 4.21532ZM267 5.98763L266.399 7.36195C269.615 8.76832 272.873 9.3236 276.152 8.98977L276 7.49748L275.848 6.0052C273.127 6.28227 270.385 5.83098 267.601 4.61331L267 5.98763ZM276 7.49748L276.152 8.98977C279.052 8.69449 281.951 8.69111 284.852 8.97962L285 7.48698L285.148 5.99435C282.049 5.68596 278.948 5.68958 275.848 6.0052L276 7.49748ZM285 7.48698L284.852 8.97962C288.187 9.31147 291.485 8.56774 294.713 6.82524L294 5.5053L293.287 4.18537C290.515 5.682 287.813 6.2594 285.148 5.99435L285 7.48698ZM294 5.5053L294.713 6.82524C297.361 5.39521 299.913 5.1979 302.48 6.14703L303 4.74016L303.52 3.33328C300.087 2.06347 296.639 2.37626 293.287 4.18537L294 5.5053ZM303 4.74016L302.48 6.14703C305.909 7.41513 309.354 7.11717 312.705 5.33382L312 4.00965L311.295 2.68547C308.646 4.09509 306.091 4.28413 303.52 3.33328L303 4.74016ZM312 4.00965L312.705 5.33382C315.355 3.9232 317.913 3.72945 320.484 4.67103L321 3.26246L321.516 1.8539C318.087 0.598762 314.645 0.903142 311.295 2.68547L312 4.00965ZM321 3.26246L320.484 4.67103C323.606 5.814 326.742 6.50716 329.888 6.7427L330 5.24688L330.112 3.75107C327.258 3.53742 324.394 2.90763 321.516 1.8539L321 3.26246ZM330 5.24688L329.888 6.7427C333.171 6.98844 336.427 6.33754 339.636 4.8343L339 3.47593L338.364 2.11756C335.573 3.42477 332.829 3.95451 330.112 3.75107L330 5.24688ZM339 3.47593L339.636 4.8343C342.437 3.52227 345.194 2.9555 347.924 3.09331L348 1.59521L348.076 0.0971198C344.806 -0.0679069 341.563 0.619132 338.364 2.11756L339 3.47593ZM348 1.59521L347.924 3.09331C350.704 3.2336 353.509 3.97378 356.349 5.34201L357 3.99071L357.651 2.63941C354.491 1.11648 351.296 0.259659 348.076 0.0971198L348 1.59521ZM357 3.99071L356.349 5.34201C359.474 6.84767 362.621 7.83552 365.787 8.29052L366 6.80578L366.213 5.32103C363.379 4.91377 360.526 4.02491 357.651 2.63941L357 3.99071ZM366 6.80578L365.787 8.29052C368.995 8.75164 372.202 8.54253 375.395 7.67065L375 6.22363L374.605 4.77662C371.798 5.54319 369.005 5.72217 366.213 5.32103L366 6.80578ZM375 6.22363L375.395 7.67065C378.451 6.83616 381.504 5.81234 384.554 4.59998L384 3.20606L383.446 1.81215C380.496 2.98477 377.549 3.97266 374.605 4.77662L375 6.22363ZM384 3.20606L384.554 4.59998C387.27 3.52035 389.943 3.34467 392.621 4.04399L393 2.59268L393.379 1.14137C390.057 0.273551 386.73 0.506801 383.446 1.81215L384 3.20606ZM393 2.59268L392.621 4.04399C394.113 4.43379 395.256 4.75174 396.058 4.99912C396.461 5.12327 396.761 5.22432 396.969 5.30313C397.23 5.40235 397.216 5.41884 397.114 5.34441L398 4.13401L398.886 2.92362C398.618 2.72719 398.27 2.58796 398.031 2.49774C397.739 2.38711 397.372 2.265 396.942 2.13225C396.078 1.86586 394.887 1.53514 393.379 1.14137L393 2.59268ZM398 4.13401L396.987 5.24068L397.387 5.60667L398.4 4.5L399.413 3.39333L399.013 3.02735L398 4.13401ZM398.4 4.5V6H398.5V4.5V3H398.4V4.5Z" fill="#0044FF"/>
</svg>
