<svg width="400" height="9" viewBox="0 0 400 9" fill="none" xmlns="http://www.w3.org/2000/svg">
<path d="M1.5 3C0.671573 3 0 3.67157 0 4.5C0 5.32843 0.671573 6 1.5 6V3ZM1.6 4.5L2.02865 3.06255L1.81889 3H1.6V4.5ZM33 4.67398L32.8392 3.18262L33 4.67398ZM123 4.24733L122.767 2.7655L123 4.24733ZM222 2.68721L221.506 1.27096L222 2.68721ZM321 3.57621L320.642 5.03296L321 3.57621ZM398 4.38466L398.416 2.94338L398.377 2.93215L398.337 2.92304L398 4.38466ZM398.4 4.5L397.984 5.94128L398.188 6H398.4V4.5ZM398.5 6C399.328 6 400 5.32843 400 4.5C400 3.67157 399.328 3 398.5 3V6ZM1.5 4.5V6H1.6V4.5V3H1.5V4.5ZM1.6 4.5L1.17135 5.93745C7.16671 7.72525 12.0321 8.19698 15.5077 6.94692L15 5.53544L14.4923 4.12396C11.9679 5.03193 7.89996 4.81336 2.02865 3.06255L1.6 4.5ZM15 5.53544L15.5077 6.94692C18.292 5.94548 21.0478 5.64476 23.7949 6.02392L24 4.538L24.2051 3.05209C20.9522 2.60314 17.708 2.96738 14.4923 4.12396L15 5.53544ZM24 4.538L23.7949 6.02392C26.9157 6.45465 30.0386 6.50191 33.1608 6.16534L33 4.67398L32.8392 3.18262C29.9614 3.49286 27.0843 3.44947 24.2051 3.05209L24 4.538ZM33 4.67398L33.1608 6.16534C35.9295 5.86685 38.7075 6.19368 41.5097 7.16287L42 5.74526L42.4903 4.32766C39.2925 3.22164 36.0705 2.83428 32.8392 3.18262L33 4.67398ZM42 5.74526L41.5097 7.16287C44.7487 8.28314 48.016 8.53606 51.2851 7.90324L51 6.43058L50.7149 4.95792C47.984 5.48655 45.2513 5.28259 42.4903 4.32766L42 5.74526ZM51 6.43058L51.2851 7.90324C54.3381 7.31226 57.3892 6.55092 60.4381 5.61971L60 4.18513L59.5619 2.75054C56.6108 3.65183 53.6619 4.38745 50.7149 4.95792L51 6.43058ZM60 4.18513L60.4381 5.61971C63.0765 4.81393 65.7057 4.98527 68.3926 6.17527L69 4.80376L69.6074 3.43225C66.2943 1.96492 62.9235 1.72384 59.5619 2.75054L60 4.18513ZM69 4.80376L68.3926 6.17527C71.7987 7.6838 75.2563 7.62118 78.6455 6.00537L78 4.65137L77.3545 3.29738C74.7437 4.54208 72.2013 4.58105 69.6074 3.43225L69 4.80376ZM78 4.65137L78.6455 6.00537C81.5326 4.62893 84.4014 3.70125 87.254 3.21109L87 1.73275L86.746 0.254418C83.5986 0.795235 80.4674 1.81331 77.3545 3.29738L78 4.65137ZM87 1.73275L87.254 3.21109C89.8466 2.7656 92.4855 3.30357 95.2264 4.95352L96 3.6684L96.7736 2.38328C93.5145 0.421385 90.1534 -0.331071 86.746 0.254418L87 1.73275ZM96 3.6684L95.2264 4.95352C98.512 6.93136 101.909 7.5871 105.343 6.78074L105 5.32047L104.657 3.8602C102.091 4.46292 99.488 4.01728 96.7736 2.38328L96 3.6684ZM105 5.32047L105.343 6.78074C108.197 6.11053 111.042 5.88639 113.885 6.10448L114 4.60888L114.115 3.11327C110.958 2.87106 107.803 3.12133 104.657 3.8602L105 5.32047ZM114 4.60888L113.885 6.10448C117.002 6.34361 120.119 6.21822 123.233 5.72917L123 4.24733L122.767 2.7655C119.881 3.2188 116.998 3.33444 114.115 3.11327L114 4.60888ZM123 4.24733L123.233 5.72917C126.221 5.25991 129.208 4.82849 132.196 4.43493L132 2.94778L131.804 1.46062C128.792 1.85744 125.779 2.2924 122.767 2.7655L123 4.24733ZM132 2.94778L132.196 4.43493C135.037 4.06065 137.877 4.14021 140.723 4.67512L141 3.20094L141.277 1.72676C138.123 1.13373 134.963 1.04451 131.804 1.46062L132 2.94778ZM141 3.20094L140.723 4.67512C143.845 5.26202 146.971 5.45284 150.099 5.24592L150 3.74919L149.901 2.25246C147.029 2.44248 144.155 2.26779 141.277 1.72676L141 3.20094ZM150 3.74919L150.099 5.24592C152.936 5.05825 155.777 5.32725 158.628 6.05802L159 4.60499L159.372 3.15197C156.223 2.34473 153.064 2.0432 149.901 2.25246L150 3.74919ZM159 4.60499L158.628 6.05802C161.639 6.82997 164.651 7.56374 167.662 8.2593L168 6.79777L168.338 5.33625C165.349 4.6461 162.361 3.91801 159.372 3.15197L159 4.60499ZM168 6.79777L167.662 8.2593C170.85 8.99546 174.047 9.10435 177.242 8.58262L177 7.10223L176.758 5.62184C173.953 6.07987 171.15 5.98579 168.338 5.33625L168 6.79777ZM177 7.10223L177.242 8.58262C180.336 8.07736 183.424 7.27139 186.506 6.16734L186 4.75523L185.494 3.34312C182.576 4.38864 179.664 5.14733 176.758 5.62184L177 7.10223ZM186 4.75523L186.506 6.16734C189.183 5.20839 191.828 5.19963 194.503 6.13922L195 4.72402L195.497 3.30881C192.172 2.14045 188.817 2.15249 185.494 3.34312L186 4.75523ZM195 4.72402L194.503 6.13922C197.968 7.35665 201.43 6.89894 204.77 4.90318L204 3.6156L203.23 2.32802C200.57 3.9181 198.032 4.19934 195.497 3.30881L195 4.72402ZM204 3.6156L204.77 4.90318C207.421 3.31863 209.948 3.06175 212.479 3.99859L213 2.59186L213.521 1.18514C210.052 -0.0988846 206.579 0.326727 203.23 2.32802L204 3.6156ZM213 2.59186L212.479 3.99859C215.804 5.22913 219.163 5.26602 222.494 4.10345L222 2.68721L221.506 1.27096C218.837 2.20213 216.196 2.17546 213.521 1.18514L213 2.59186ZM222 2.68721L222.494 4.10345C224.982 3.23542 227.492 3.59357 230.162 5.39162L231 4.14746L231.838 2.9033C228.508 0.660612 225.018 0.0452518 221.506 1.27096L222 2.68721ZM231 4.14746L230.162 5.39162C233.453 7.60786 236.89 8.36716 240.377 7.46277L240 6.01082L239.623 4.55886C237.11 5.21075 234.547 4.72781 231.838 2.9033L231 4.14746ZM240 6.01082L240.377 7.46277C243.449 6.66595 246.516 5.6269 249.578 4.34724L249 2.96321L248.422 1.57919C245.484 2.80673 242.551 3.79941 239.623 4.55886L240 6.01082ZM249 2.96321L249.578 4.34724C252.069 3.30651 254.549 3.55456 257.182 5.2678L258 4.01047L258.818 2.75314C255.451 0.56285 251.931 0.112728 248.422 1.57919L249 2.96321ZM258 4.01047L257.182 5.2678C260.513 7.43475 263.991 8.01172 267.488 6.80949L267 5.39098L266.512 3.97248C264.009 4.8331 261.487 4.48974 258.818 2.75314L258 4.01047ZM267 5.39098L267.488 6.80949C270.392 5.81096 273.288 5.1418 276.177 4.79826L276 3.30875L275.823 1.81925C272.712 2.18916 269.608 2.90815 266.512 3.97248L267 5.39098ZM276 3.30875L276.177 4.79826C278.917 4.4725 281.669 4.83893 284.456 5.92418L285 4.52646L285.544 3.12875C282.331 1.87693 279.083 1.43155 275.823 1.81925L276 3.30875ZM285 4.52646L284.456 5.92418C287.586 7.14341 290.733 7.87141 293.893 8.09775L294 6.60158L294.107 5.10542C291.267 4.902 288.414 4.24659 285.544 3.12875L285 4.52646ZM294 6.60158L293.893 8.09775C297.201 8.33473 300.475 7.59023 303.69 5.92582L303 4.5938L302.31 3.26178C299.525 4.70417 296.799 5.29819 294.107 5.10542L294 6.60158ZM303 4.5938L303.69 5.92582C306.495 4.47339 309.247 3.80447 311.965 3.86727L312 2.36767L312.035 0.868071C308.753 0.792242 305.505 1.60741 302.31 3.26178L303 4.5938ZM312 2.36767L311.965 3.86727C314.853 3.934 317.745 4.32178 320.642 5.03296L321 3.57621L321.358 2.11945C318.255 1.35788 315.147 0.939974 312.035 0.868071L312 2.36767ZM321 3.57621L320.642 5.03296C323.8 5.80808 326.968 6.0516 330.138 5.75879L330 4.26515L329.862 2.7715C327.032 3.03286 324.2 2.81709 321.358 2.11945L321 3.57621ZM330 4.26515L330.138 5.75879C332.892 5.50445 335.66 5.90681 338.459 6.9901L339 5.59122L339.541 4.19235C336.34 2.95337 333.108 2.47168 329.862 2.7715L330 4.26515ZM339 5.59122L338.459 6.9901C341.984 8.35469 345.499 7.78443 348.846 5.50001L348 4.26114L347.154 3.02226C344.501 4.83356 342.016 5.15003 339.541 4.19235L339 5.59122ZM348 4.26114L348.846 5.50001C351.595 3.62335 354.214 2.98224 356.763 3.38967L357 1.90846L357.237 0.427258C353.786 -0.124142 350.405 0.803199 347.154 3.02226L348 4.26114ZM357 1.90846L356.763 3.38967C359.848 3.88257 362.934 4.10692 366.022 4.06208L366 2.56224L365.978 1.06239C363.066 1.10469 360.152 0.893188 357.237 0.427258L357 1.90846ZM366 2.56224L366.022 4.06208C368.977 4.01916 371.932 4.10934 374.887 4.33264L375 2.83691L375.113 1.34117C372.068 1.11111 369.023 1.01817 365.978 1.06239L366 2.56224ZM375 2.83691L374.887 4.33264C377.805 4.55313 380.726 5.01383 383.65 5.71584L384 4.25728L384.35 2.79873C381.274 2.06026 378.195 1.57404 375.113 1.34117L375 2.83691ZM384 4.25728L383.65 5.71584C386.819 6.47658 389.997 6.67048 393.177 6.29302L393 4.80348L392.823 3.31394C390.003 3.64869 387.181 3.47846 384.35 2.79873L384 4.25728ZM393 4.80348L393.177 6.29302C394.671 6.11567 395.818 5.99411 396.625 5.92646C397.031 5.8925 397.335 5.87351 397.547 5.86685C397.827 5.85806 397.8 5.87783 397.663 5.84628L398 4.38466L398.337 2.92304C398.034 2.85304 397.673 2.86143 397.453 2.86832C397.165 2.87734 396.803 2.90108 396.375 2.93693C395.516 3.00889 394.329 3.13519 392.823 3.31394L393 4.80348ZM398 4.38466L397.584 5.82594L397.984 5.94128L398.4 4.5L398.816 3.05872L398.416 2.94338L398 4.38466ZM398.4 4.5V6H398.5V4.5V3H398.4V4.5Z" fill="#0044FF"/>
</svg>
