<svg width="400" height="10" viewBox="0 0 400 10" fill="none" xmlns="http://www.w3.org/2000/svg">
<path d="M1.5 4C0.671573 4 0 4.67157 0 5.5C0 6.32843 0.671573 7 1.5 7V4ZM1.6 5.5L1.7608 4.00864L1.68063 4H1.6V5.5ZM33 6.99041L32.3752 5.62673L33 6.99041ZM258 5.31648L257.657 6.77672L258 5.31648ZM276 8.1771L276.101 6.68052L276 8.1771ZM330 5.74832L329.486 4.33914L330 5.74832ZM384 4.10761L383.671 5.57116L384 4.10761ZM398 4.1503L399.438 3.72408L399.424 3.67613L399.407 3.62922L398 4.1503ZM398.4 5.5L396.962 5.92622L397.28 7H398.4V5.5ZM398.5 7C399.328 7 400 6.32843 400 5.5C400 4.67157 399.328 4 398.5 4V7ZM1.5 5.5V7H1.6V5.5V4H1.5V5.5ZM1.6 5.5L1.4392 6.99136C7.45495 7.63998 12.252 7.30641 15.6252 5.75957L15 4.39609L14.3748 3.03261C11.748 4.23713 7.61171 4.6395 1.7608 4.00864L1.6 5.5ZM15 4.39609L15.6252 5.75957C18.0499 4.64772 20.4706 4.9292 23.1026 6.89434L24 5.6924L24.8974 4.49046C21.5294 1.97582 17.9501 1.3931 14.3748 3.03261L15 4.39609ZM24 5.6924L23.1026 6.89434C26.4704 9.40884 30.0495 9.99224 33.6248 8.35408L33 6.99041L32.3752 5.62673C29.9505 6.73768 27.5296 6.45574 24.8974 4.49046L24 5.6924ZM33 6.99041L33.6248 8.35408C36.338 7.11096 38.9906 6.84568 41.6375 7.50497L42 6.04944L42.3625 4.59391C39.0094 3.75873 35.662 4.12076 32.3752 5.62673L33 6.99041ZM42 6.04944L41.6375 7.50497C44.8708 8.31033 48.1152 8.32526 51.35 7.54892L51 6.09033L50.65 4.63175C47.8848 5.29537 45.1292 5.28304 42.3625 4.59391L42 6.04944ZM51 6.09033L51.35 7.54892C54.3635 6.82571 57.3768 6.05842 60.39 5.24706L60 3.79865L59.61 2.35024C56.6232 3.1545 53.6365 3.915 50.65 4.63175L51 6.09033ZM60 3.79865L60.39 5.24706C63.2462 4.47797 66.092 4.16005 68.9326 4.28779L69 2.78931L69.0674 1.29082C65.908 1.14874 62.7538 1.50372 59.61 2.35024L60 3.79865ZM69 2.78931L68.9326 4.28779C71.9611 4.42399 74.9897 4.47369 78.0182 4.43689L78 2.937L77.9818 1.43711C75.0103 1.47321 72.0389 1.42445 69.0674 1.29082L69 2.78931ZM78 2.937L78.0182 4.43689C80.9576 4.40118 83.8974 4.5431 86.8379 4.8628L87 3.37159L87.1621 1.88038C84.1026 1.54773 81.0424 1.39992 77.9818 1.43711L78 2.937ZM87 3.37159L86.8379 4.8628C89.8856 5.19416 92.9338 5.37787 95.9823 5.41384L96 3.91394L96.0177 2.41405C93.0662 2.37923 90.1144 2.20137 87.1621 1.88038L87 3.37159ZM96 3.91394L95.9823 5.41384C98.9074 5.44835 101.834 5.70107 104.762 6.17245L105 4.69152L105.238 3.21059C102.166 2.716 99.0926 2.45033 96.0177 2.41405L96 3.91394ZM105 4.69152L104.762 6.17245C107.752 6.65386 110.742 7.16586 113.732 7.70844L114 6.23255L114.268 4.75664C111.258 4.21052 108.248 3.69517 105.238 3.21059L105 4.69152ZM114 6.23255L113.732 7.70844C116.723 8.25105 119.713 8.82394 122.703 9.4271L123 7.95671L123.297 6.48633C120.287 5.87931 117.277 5.30275 114.268 4.75664L114 6.23255ZM123 7.95671L122.703 9.4271C126.097 10.1115 129.458 9.49084 132.73 7.66921L132 6.35868L131.27 5.04814C128.542 6.56741 125.903 7.01209 123.297 6.48633L123 7.95671ZM132 6.35868L132.73 7.66921C135.345 6.21273 137.855 6.0765 140.403 7.18206L141 5.80607L141.597 4.43008C138.144 2.93155 134.655 3.16373 131.27 5.04814L132 6.35868ZM141 5.80607L140.403 7.18206C143.89 8.69568 147.404 8.35078 150.784 6.27808L150 4.99939L149.216 3.7207C146.596 5.32765 144.11 5.52054 141.597 4.43008L141 5.80607ZM150 4.99939L150.784 6.27808C152.089 5.47778 153.32 5.12097 154.498 5.12258C155.676 5.12418 156.908 5.48442 158.213 6.28878L159 5.01164L159.787 3.7345C158.092 2.69086 156.324 2.12506 154.502 2.12258C152.68 2.1201 150.911 2.68116 149.216 3.7207L150 4.99939ZM159 5.01164L158.213 6.28878C161.404 8.25425 164.667 9.2972 167.983 9.33547L168 7.83557L168.017 6.33567C165.333 6.3047 162.596 5.46503 159.787 3.7345L159 5.01164ZM168 7.83557L167.983 9.33547C171.028 9.3706 174.073 9.26888 177.117 9.03035L177 7.53493L176.883 6.03951C173.927 6.27106 170.972 6.36976 168.017 6.33567L168 7.83557ZM177 7.53493L177.117 9.03035C180.166 8.79149 183.214 8.40312 186.261 7.86542L186 6.38825L185.739 4.91107C182.786 5.4322 179.834 5.80828 176.883 6.03951L177 7.53493ZM186 6.38825L186.261 7.86542C189.041 7.3748 191.82 7.4998 194.612 8.24675L195 6.79768L195.388 5.34861C192.18 4.49082 188.959 4.34287 185.739 4.91107L186 6.38825ZM195 6.79768L194.612 8.24675C197.856 9.11437 201.114 9.14577 204.362 8.33889L204 6.88315L203.638 5.42741C200.886 6.11131 198.144 6.08573 195.388 5.34861L195 6.79768ZM204 6.88315L204.362 8.33889C207.074 7.66499 209.78 7.78868 212.514 8.72477L213 7.30563L213.486 5.88649C210.22 4.7685 206.926 4.61055 203.638 5.42741L204 6.88315ZM213 7.30563L212.514 8.72477C216.059 9.93834 219.563 9.20216 222.881 6.7928L222 5.57899L221.119 4.36517C218.437 6.31208 215.941 6.727 213.486 5.88649L213 7.30563ZM222 5.57899L222.881 6.7928C225.684 4.75792 228.378 3.82689 230.988 3.84783L231 2.34788L231.012 0.847926C227.622 0.820736 224.316 2.04378 221.119 4.36517L222 5.57899ZM231 2.34788L230.988 3.84783C233.967 3.87173 236.947 3.95669 239.927 4.10271L240 2.60451L240.073 1.10631C237.053 0.958281 234.033 0.872154 231.012 0.847926L231 2.34788ZM240 2.60451L239.927 4.10271C242.871 4.24703 245.817 4.55387 248.764 5.02346L249 3.54215L249.236 2.06084C246.183 1.57428 243.129 1.25603 240.073 1.10631L240 2.60451ZM249 3.54215L248.764 5.02346C251.728 5.49572 254.692 6.0801 257.657 6.77672L258 5.31648L258.343 3.85624C255.308 3.14322 252.272 2.54471 249.236 2.06084L249 3.54215ZM258 5.31648L257.657 6.77672C260.689 7.48896 263.721 8.09765 266.754 8.60269L267 7.12307L267.246 5.64344C264.279 5.14934 261.311 4.55363 258.343 3.85624L258 5.31648ZM267 7.12307L266.754 8.60269C269.801 9.11018 272.85 9.46723 275.899 9.67367L276 8.1771L276.101 6.68052C273.15 6.48074 270.199 6.13511 267.246 5.64344L267 7.12307ZM276 8.1771L275.899 9.67367C279.004 9.88394 282.11 9.7663 285.213 9.32133L285 7.83651L284.787 6.3517C281.89 6.76707 278.996 6.87648 276.101 6.68052L276 8.1771ZM285 7.83651L285.213 9.32133C288.079 8.91041 290.942 8.89085 293.807 9.26241L294 7.77487L294.193 6.28733C291.058 5.88074 287.921 5.90228 284.787 6.3517L285 7.83651ZM294 7.77487L293.807 9.26241C297.055 9.68361 300.294 9.31039 303.505 8.16283L303 6.75031L302.495 5.3378C299.706 6.33445 296.945 6.64426 294.193 6.28733L294 7.77487ZM303 6.75031L303.505 8.16283C306.388 7.1325 309.259 6.50618 312.12 6.27717L312 4.78195L311.88 3.28674C308.741 3.53799 305.612 4.22391 302.495 5.3378L303 6.75031ZM312 4.78195L312.12 6.27717C314.911 6.05377 317.71 6.40039 320.53 7.33029L321 5.90575L321.47 4.48122C318.29 3.43245 315.089 3.02987 311.88 3.28674L312 4.78195ZM321 5.90575L320.53 7.33029C323.854 8.42651 327.201 8.366 330.514 7.1575L330 5.74832L329.486 4.33914C326.799 5.31921 324.146 5.36367 321.47 4.48122L321 5.90575ZM330 5.74832L330.514 7.1575C333.45 6.08668 336.381 5.24469 339.308 4.63014L339 3.16214L338.692 1.69415C335.619 2.33925 332.55 3.22138 329.486 4.33914L330 5.74832ZM339 3.16214L339.308 4.63014C341.949 4.07569 344.608 4.4366 347.336 5.78223L348 4.43697L348.664 3.09171C345.392 1.47792 342.051 0.988941 338.692 1.69415L339 3.16214ZM348 4.43697L347.336 5.78223C350.509 7.34696 353.721 8.188 356.962 8.27021L357 6.77069L357.038 5.27118C354.279 5.20118 351.491 4.4864 348.664 3.09171L348 4.43697ZM357 6.77069L356.962 8.27021C360.244 8.35348 363.493 7.544 366.688 5.89354L366 4.56079L365.312 3.22804C362.507 4.67633 359.755 5.34011 357.038 5.27118L357 6.77069ZM366 4.56079L366.688 5.89354C369.464 4.4599 372.178 3.90394 374.857 4.1601L375 2.66691L375.143 1.17371C371.822 0.85631 368.536 1.56294 365.312 3.22804L366 4.56079ZM375 2.66691L374.857 4.1601C377.793 4.44079 380.731 4.91096 383.671 5.57116L384 4.10761L384.329 2.64406C381.269 1.95689 378.207 1.46659 375.143 1.17371L375 2.66691ZM384 4.10761L383.671 5.57116C386.905 6.29731 390.146 6.24327 393.374 5.41198L393 3.95937L392.626 2.50675C389.854 3.22049 387.095 3.26528 384.329 2.64406L384 4.10761ZM393 3.95937L393.374 5.41198C394.832 5.03658 395.83 4.90322 396.443 4.92662C397.153 4.95374 396.766 5.13653 396.593 4.67137L398 4.1503L399.407 3.62922C398.901 2.26426 397.514 1.96533 396.557 1.92881C395.503 1.88857 394.168 2.10964 392.626 2.50675L393 3.95937ZM398 4.1503L396.562 4.57652L396.962 5.92622L398.4 5.5L399.838 5.07378L399.438 3.72408L398 4.1503ZM398.4 5.5V7H398.5V5.5V4H398.4V5.5Z" fill="#CAD4DE"/>
</svg>
