<svg width="400" height="10" viewBox="0 0 400 10" fill="none" xmlns="http://www.w3.org/2000/svg">
<path d="M1.5 3C0.671573 3 0 3.67157 0 4.5C0 5.32843 0.671573 6 1.5 6V3ZM1.6 4.5L1.69416 3.00296L1.64713 3H1.6V4.5ZM33 5.28013L32.8925 3.78399L33 5.28013ZM96 4.3092L95.0994 5.50874L96 4.3092ZM159 1.80497L158.747 3.2834L159 1.80497ZM348 2.74004L347.627 1.28721L348 2.74004ZM357 2.96965L356.559 4.40323L357 2.96965ZM384 6.91911L384.131 5.42482L384 6.91911ZM398 6.03589L399.426 6.50022L399.44 6.45746L399.452 6.41393L398 6.03589ZM398.4 4.5V3H397.241L396.948 4.12196L398.4 4.5ZM398.5 6C399.328 6 400 5.32843 400 4.5C400 3.67157 399.328 3 398.5 3V6ZM1.5 4.5V6H1.6V4.5V3H1.5V4.5ZM1.6 4.5L1.50584 5.99704C7.48939 6.37341 12.1813 6.10193 15.4517 5.06926L15 3.63888L14.5483 2.20849C11.8187 3.07041 7.57727 3.37301 1.69416 3.00296L1.6 4.5ZM15 3.63888L15.4517 5.06926C18.1248 4.22517 20.7799 4.30201 23.4719 5.31465L24 3.9107L24.5281 2.50674C21.2201 1.26238 17.8752 1.15801 14.5483 2.20849L15 3.63888ZM24 3.9107L23.4719 5.31465C26.661 6.51431 29.8775 7.00835 33.1075 6.77628L33 5.28013L32.8925 3.78399C30.1226 3.98301 27.339 3.56409 24.5281 2.50674L24 3.9107ZM33 5.28013L33.1075 6.77628C36.1707 6.55619 39.2326 6.14147 42.2927 5.53257L42 4.06141L41.7073 2.59025C38.7674 3.17522 35.8293 3.57299 32.8925 3.78399L33 5.28013ZM42 4.06141L42.2927 5.53257C44.9702 4.99981 47.6589 5.31037 50.3987 6.50916L51 5.13494L51.6013 3.76073C48.3411 2.33427 45.0298 1.92914 41.7073 2.59025L42 4.06141ZM51 5.13494L50.3987 6.50916C53.5907 7.90579 56.8198 8.54337 60.0706 8.39024L60 6.8919L59.9294 5.39356C57.1802 5.52306 54.4093 4.98934 51.6013 3.76073L51 5.13494ZM60 6.8919L60.0706 8.39024C63.2808 8.23902 66.4684 7.42687 69.6257 5.97761L69 4.61437L68.3743 3.25112C65.5316 4.55594 62.7192 5.26214 59.9294 5.39356L60 6.8919ZM69 4.61437L69.6257 5.97761C72.3851 4.71102 75.0915 4.30397 77.7778 4.70638L78 3.22293L78.2222 1.73948C74.9085 1.24307 71.6149 1.76364 68.3743 3.25112L69 4.61437ZM78 3.22293L77.7778 4.70638C81.0195 5.19199 84.2562 4.89755 87.4696 3.83842L87 2.41381L86.5304 0.9892C83.7438 1.90771 80.9805 2.15268 78.2222 1.73948L78 3.22293ZM87 2.41381L87.4696 3.83842C89.9118 3.03345 92.4076 3.48774 95.0994 5.50874L96 4.3092L96.9006 3.10966C93.5924 0.625824 90.0882 -0.183479 86.5304 0.9892L87 2.41381ZM96 4.3092L95.0994 5.50874C98.3432 7.94422 101.745 9.0079 105.237 8.44966L105 6.96846L104.763 5.48727C102.255 5.88816 99.6568 5.17901 96.9006 3.10966L96 4.3092ZM105 6.96846L105.237 8.44966C108.3 7.95994 111.361 7.26927 114.42 6.37838L114 4.93824L113.58 3.4981C110.639 4.35503 107.7 5.01784 104.763 5.48727L105 6.96846ZM114 4.93824L114.42 6.37838C117.073 5.60535 119.719 5.77159 122.416 6.91216L123 5.53064L123.584 4.14913C120.281 2.75201 116.927 2.52332 113.58 3.4981L114 4.93824ZM123 5.53064L122.416 6.91216C125.574 8.24789 128.758 8.96656 131.962 9.04842L132 7.54891L132.038 6.0494C129.242 5.97792 126.426 5.35108 123.584 4.14913L123 5.53064ZM132 7.54891L131.962 9.04842C135.005 9.1262 138.048 9.07193 141.092 8.88562L141 7.38843L140.908 5.89123C137.952 6.07225 134.995 6.12496 132.038 6.0494L132 7.54891ZM141 7.38843L141.092 8.88562C144.409 8.68253 147.663 7.46198 150.84 5.31616L150 4.07318L149.16 2.8302C146.337 4.73739 143.591 5.72701 140.908 5.89123L141 7.38843ZM150 4.07318L150.84 5.31616C153.584 3.46238 156.198 2.84648 158.747 3.2834L159 1.80497L159.253 0.326546C155.802 -0.265265 152.416 0.630967 149.16 2.8302L150 4.07318ZM159 1.80497L158.747 3.2834C161.92 3.82752 165.097 3.80955 168.27 3.2299L168 1.75433L167.73 0.278755C164.903 0.795366 162.08 0.811161 159.253 0.326546L159 1.80497ZM168 1.75433L168.27 3.2299C170.97 2.73646 173.681 3.03437 176.433 4.15822L177 2.76952L177.567 1.38082C174.319 0.0548229 171.03 -0.324066 167.73 0.278755L168 1.75433ZM177 2.76952L176.433 4.15822C179.504 5.41215 182.581 6.3943 185.664 7.10237L186 5.64043L186.336 4.1785C183.419 3.50853 180.496 2.57672 177.567 1.38082L177 2.76952ZM186 5.64043L185.664 7.10237C188.845 7.83287 192.034 7.95999 195.223 7.48022L195 5.99691L194.777 4.51361C191.966 4.93658 189.155 4.82604 186.336 4.1785L186 5.64043ZM195 5.99691L195.223 7.48022C198.017 7.05993 200.811 7.21648 203.618 7.95626L204 6.50578L204.382 5.05531C201.189 4.21386 197.983 4.03116 194.777 4.51361L195 5.99691ZM204 6.50578L203.618 7.95626C206.848 8.80749 210.091 8.87244 213.328 8.14749L213 6.68375L212.672 5.22002C209.909 5.839 207.152 5.7853 204.382 5.05531L204 6.50578ZM213 6.68375L213.328 8.14749C216.179 7.50887 219.023 7.32047 221.864 7.5789L222 6.08507L222.136 4.59123C218.977 4.30398 215.821 4.5147 212.672 5.22002L213 6.68375ZM222 6.08507L221.864 7.5789C225.165 7.87912 228.438 7.21965 231.656 5.65346L231 4.30466L230.344 2.95587C227.562 4.30924 224.835 4.8367 222.136 4.59123L222 6.08507ZM231 4.30466L231.656 5.65346C234.293 4.37052 236.855 4.26295 239.449 5.28741L240 3.89228L240.551 2.49715C237.145 1.1519 233.707 1.31924 230.344 2.95587L231 4.30466ZM240 3.89228L239.449 5.28741C242.628 6.54305 245.835 7.11843 249.059 6.99221L249 5.49335L248.941 3.9945C246.165 4.10323 243.372 3.61123 240.551 2.49715L240 3.89228ZM249 5.49335L249.059 6.99221C251.925 6.87995 254.795 7.14598 257.671 7.79305L258 6.32964L258.329 4.86622C255.205 4.16329 252.075 3.8718 248.941 3.9945L249 5.49335ZM258 6.32964L257.671 7.79305C261.153 8.57662 264.574 7.73614 267.85 5.4842L267 4.24817L266.15 3.01213C263.425 4.88548 260.847 5.43265 258.329 4.86622L258 6.32964ZM267 4.24817L267.85 5.4842C270.571 3.61338 273.144 3.07993 275.658 3.66879L276 2.20832L276.342 0.747856C272.856 -0.06879 269.429 0.757657 266.15 3.01213L267 4.24817ZM276 2.20832L275.658 3.66879C278.7 4.38151 281.744 4.95427 284.789 5.38682L285 3.90173L285.211 2.41664C282.256 1.99682 279.299 1.44063 276.342 0.747856L276 2.20832ZM285 3.90173L284.789 5.38682C287.93 5.83308 291.074 5.82898 294.215 5.37457L294 3.89002L293.785 2.40548C290.926 2.81905 288.07 2.82276 285.211 2.41664L285 3.90173ZM294 3.89002L294.215 5.37457C297.256 4.93462 300.296 4.36585 303.335 3.66842L303 2.20642L302.665 0.744416C299.704 1.42381 296.744 1.97743 293.785 2.40548L294 3.89002ZM303 2.20642L303.335 3.66842C306.054 3.04469 308.768 3.19644 311.512 4.14022L312 2.7218L312.488 1.30338C309.232 0.183166 305.946 -0.00867081 302.665 0.744416L303 2.20642ZM312 2.7218L311.512 4.14022C314.627 5.21183 317.754 5.86692 320.889 6.09949L321 4.6036L321.111 3.10771C318.246 2.89521 315.373 2.29576 312.488 1.30338L312 2.7218ZM321 4.6036L320.889 6.09949C323.983 6.32897 327.076 6.26827 330.169 5.9176L330 4.42715L329.831 2.9367C326.924 3.26637 324.017 3.3233 321.111 3.10771L321 4.6036ZM330 4.42715L330.169 5.9176C333.114 5.58362 336.059 5.41328 339.003 5.40645L339 3.90645L338.997 2.40646C335.941 2.41355 332.886 2.59034 329.831 2.9367L330 4.42715ZM339 3.90645L339.003 5.40645C342.132 5.39918 345.256 4.99353 348.373 4.19287L348 2.74004L347.627 1.28721C344.744 2.02783 341.868 2.39979 338.997 2.40646L339 3.90645ZM348 2.74004L348.373 4.19287C351.101 3.49207 353.819 3.55982 356.559 4.40323L357 2.96965L357.441 1.53607C354.181 0.532043 350.899 0.446717 347.627 1.28721L348 2.74004ZM357 2.96965L356.559 4.40323C359.753 5.38694 362.967 5.68391 366.186 5.28251L366 3.79404L365.814 2.30557C363.033 2.65243 360.247 2.3998 357.441 1.53607L357 2.96965ZM366 3.79404L366.186 5.28251C368.936 4.93957 371.696 5.26746 374.485 6.28779L375 4.8791L375.515 3.47041C372.304 2.29573 369.064 1.90025 365.814 2.30557L366 3.79404ZM375 4.8791L374.485 6.28779C377.601 7.42786 380.73 8.13872 383.869 8.4134L384 6.91911L384.131 5.42482C381.27 5.17449 378.399 4.52534 375.515 3.47041L375 4.8791ZM384 6.91911L383.869 8.4134C386.898 8.67845 389.928 8.85456 392.957 8.94171L393 7.44233L393.043 5.94295C390.072 5.85749 387.102 5.68479 384.131 5.42482L384 6.91911ZM393 7.44233L392.957 8.94171C394.515 8.98653 395.858 8.89433 396.906 8.59941C397.921 8.31408 399.028 7.7243 399.426 6.50022L398 6.03589L396.574 5.57156C396.639 5.37141 396.746 5.52801 396.094 5.71149C395.476 5.88538 394.485 5.98444 393.043 5.94295L393 7.44233ZM398 6.03589L399.452 6.41393L399.852 4.87804L398.4 4.5L396.948 4.12196L396.548 5.65785L398 6.03589ZM398.4 4.5V6H398.5V4.5V3H398.4V4.5Z" fill="#CAD4DE"/>
</svg>
