<svg width="400" height="10" viewBox="0 0 400 10" fill="none" xmlns="http://www.w3.org/2000/svg">
<path d="M1.5 3C0.671573 3 0 3.67157 0 4.5C0 5.32843 0.671573 6 1.5 6V3ZM1.6 4.5L2.12043 3.09318L1.86856 3H1.6V4.5ZM33 5.53412L32.2972 6.85927L33 5.53412ZM114 2.18139L113.845 3.6734L114 2.18139ZM132 4.64996L131.138 3.42234L132 4.64996ZM168 4.25904L167.696 5.728L168 4.25904ZM398 5.36646L399.299 6.11618L399.333 6.0571L399.362 5.99517L398 5.36646ZM398.4 4.5V3H397.44L397.038 3.87129L398.4 4.5ZM398.5 6C399.328 6 400 5.32843 400 4.5C400 3.67157 399.328 3 398.5 3V6ZM1.5 4.5V6H1.6V4.5V3H1.5V4.5ZM1.6 4.5L1.07957 5.90682C7.06289 8.12027 11.9544 8.88989 15.4728 7.72119L15 6.29767L14.5272 4.87415C12.0456 5.69846 8.00377 5.26963 2.12043 3.09318L1.6 4.5ZM15 6.29767L15.4728 7.72119C18.4093 6.74578 21.3421 5.98924 24.2714 5.4504L24 3.97515L23.7286 2.4999C20.6579 3.06475 17.5907 3.85655 14.5272 4.87415L15 6.29767ZM24 3.97515L24.2714 5.4504C26.9012 4.96665 29.5599 5.40747 32.2972 6.85927L33 5.53412L33.7028 4.20897C30.4401 2.47846 27.0988 1.87997 23.7286 2.4999L24 3.97515ZM33 5.53412L32.2972 6.85927C35.5076 8.56202 38.7789 9.34861 42.0876 9.15511L42 7.65767L41.9124 6.16023C39.2211 6.31763 36.4924 5.68853 33.7028 4.20897L33 5.53412ZM42 7.65767L42.0876 9.15511C45.0528 8.98169 48.0179 8.9119 50.9829 8.94572L51 7.44582L51.0171 5.94591C47.9821 5.91129 44.9472 5.98274 41.9124 6.16023L42 7.65767ZM51 7.44582L50.9829 8.94572C54.1226 8.98153 57.2573 8.58407 60.3834 7.75752L60 6.30735L59.6166 4.85719C56.7427 5.61702 53.8774 5.97854 51.0171 5.94591L51 7.44582ZM60 6.30735L60.3834 7.75752C63.1277 7.03194 65.8592 7.04325 68.6052 7.79247L69 6.34536L69.3948 4.89826C66.1408 4.01041 62.8723 3.99637 59.6166 4.85719L60 6.30735ZM69 6.34536L68.6052 7.79247C71.8312 8.67267 75.0723 8.77551 78.3085 8.09539L78 6.62746L77.6915 5.15953C74.9277 5.74035 72.1688 5.65512 69.3948 4.89826L69 6.34536ZM78 6.62746L78.3085 8.09539C81.1353 7.50131 83.9552 7.41802 86.7764 7.84324L87 6.36L87.2236 4.87675C84.0448 4.39765 80.8647 4.49266 77.6915 5.15953L78 6.62746ZM87 6.36L86.7764 7.84324C89.9977 8.32876 93.2169 8.10085 96.4191 7.16903L96 5.72877L95.5809 4.28851C92.7831 5.10266 90.0023 5.29556 87.2236 4.87675L87 6.36ZM96 5.72877L96.4191 7.16903C99.4233 6.29483 102.427 5.40639 105.432 4.50371L105 3.06716L104.568 1.63061C101.573 2.53079 98.5767 3.41675 95.5809 4.28851L96 5.72877ZM105 3.06716L105.432 4.50371C108.249 3.65708 111.05 3.38371 113.845 3.6734L114 2.18139L114.155 0.689381C110.95 0.357245 107.751 0.674388 104.568 1.63061L105 3.06716ZM114 2.18139L113.845 3.6734C116.609 3.95977 119.409 4.89825 122.254 6.52984L123 5.22866L123.746 3.92748C120.591 2.11787 117.391 1.02483 114.155 0.689381L114 2.18139ZM123 5.22866L122.254 6.52984C123.97 7.51405 125.76 7.98942 127.596 7.87134C129.426 7.75368 131.186 7.05441 132.862 5.87757L132 4.64996L131.138 3.42234C129.814 4.3519 128.574 4.80229 127.404 4.87753C126.24 4.95235 125.03 4.66387 123.746 3.92748L123 5.22866ZM132 4.64996L132.862 5.87757C135.627 3.9359 138.264 3.21057 140.823 3.51464L141 2.02512L141.177 0.535596C137.736 0.126649 134.373 1.15121 131.138 3.42234L132 4.64996ZM141 2.02512L140.823 3.51464C143.66 3.8518 146.514 4.65589 149.388 5.93994L150 4.57042L150.612 3.20089C147.486 1.80422 144.34 0.911441 141.177 0.535596L141 2.02512ZM150 4.57042L149.388 5.93994C152.731 7.43337 156.133 7.58599 159.51 6.36575L159 4.95502L158.49 3.54428C155.867 4.49197 153.269 4.38819 150.612 3.20089L150 4.57042ZM159 4.95502L159.51 6.36575C162.26 5.37185 164.979 5.16646 167.696 5.728L168 4.25904L168.304 2.79008C165.021 2.11166 161.74 2.37026 158.49 3.54428L159 4.95502ZM168 4.25904L167.696 5.728C170.793 6.36786 173.893 6.69353 176.995 6.70361L177 5.20362L177.005 3.70362C174.107 3.69422 171.207 3.39018 168.304 2.79008L168 4.25904ZM177 5.20362L176.995 6.70361C180.094 6.71367 183.191 6.41851 186.285 5.81931L186 4.34667L185.715 2.87404C182.809 3.43691 179.906 3.71304 177.005 3.70362L177 5.20362ZM186 4.34667L186.285 5.81931C189.18 5.25867 192.071 5.01817 194.959 5.09635L195 3.5969L195.041 2.09745C191.929 2.01325 188.82 2.2726 185.715 2.87404L186 4.34667ZM195 3.5969L194.959 5.09635C197.894 5.17577 200.83 5.44672 203.766 5.90954L204 4.42782L204.234 2.94611C201.17 2.46341 198.106 2.18041 195.041 2.09745L195 3.5969ZM204 4.42782L203.766 5.90954C207.072 6.43037 210.36 5.96018 213.601 4.54196L213 3.16777L212.399 1.79359C209.64 3.00096 206.928 3.3708 204.234 2.94611L204 4.42782ZM213 3.16777L213.601 4.54196C216.151 3.42624 218.661 3.55361 221.275 4.99735L222 3.68436L222.725 2.37136C219.339 0.500731 215.849 0.283716 212.399 1.79359L213 3.16777ZM222 3.68436L221.275 4.99735C224.51 6.78473 227.823 7.52555 231.174 7.13313L231 5.6433L230.826 4.15348C228.178 4.4635 225.49 3.89836 222.725 2.37136L222 3.68436ZM231 5.6433L231.174 7.13313C234.34 6.76258 237.488 5.86775 240.615 4.46222L240 3.09405L239.385 1.72587C236.512 3.0169 233.661 3.82158 230.826 4.15348L231 5.6433ZM240 3.09405L240.615 4.46222C243.291 3.25944 245.907 3.10581 248.537 3.95989L249 2.53326L249.463 1.10663C246.093 0.0118613 242.709 0.23208 239.385 1.72587L240 3.09405ZM249 2.53326L248.537 3.95989C251.54 4.93545 254.544 5.89885 257.547 6.85007L258 5.42007L258.453 3.99008C255.456 3.04108 252.46 2.07993 249.463 1.10663L249 2.53326ZM258 5.42007L257.547 6.85007C260.731 7.85828 263.933 8.21561 267.142 7.91001L267 6.41677L266.858 4.92352C264.067 5.18923 261.269 4.88209 258.453 3.99008L258 5.42007ZM267 6.41677L267.142 7.91001C270.143 7.6243 273.143 7.33666 276.144 7.0471L276 5.55403L275.856 4.06097C272.857 4.35041 269.857 4.63793 266.858 4.92352L267 6.41677ZM276 5.55403L276.144 7.0471C279.24 6.7483 282.332 6.14934 285.419 5.25234L285 3.81194L284.581 2.37154C281.668 3.21832 278.76 3.78075 275.856 4.06097L276 5.55403ZM285 3.81194L285.419 5.25234C288.366 4.39576 291.311 3.71476 294.254 3.20879L294 1.73048L293.746 0.252167C290.689 0.777708 287.634 1.48435 284.581 2.37154L285 3.81194ZM294 1.73048L294.254 3.20879C296.81 2.76943 299.428 3.37185 302.171 5.19083L303 3.94068L303.829 2.69054C300.572 0.53107 297.19 -0.339975 293.746 0.252167L294 1.73048ZM303 3.94068L302.171 5.19083C305.536 7.42219 309.062 7.8967 312.579 6.42381L312 5.04021L311.421 3.65661C308.938 4.69613 306.464 4.43762 303.829 2.69054L303 3.94068ZM312 5.04021L312.579 6.42381C315.491 5.2044 318.394 4.31365 321.288 3.74724L321 2.27517L320.712 0.803097C317.606 1.41099 314.509 2.36361 311.421 3.65661L312 5.04021ZM321 2.27517L321.288 3.74724C324.14 3.18916 326.985 3.07228 329.831 3.3946L330 1.90413L330.169 0.413656C327.015 0.0563874 323.86 0.186864 320.712 0.803097L321 2.27517ZM330 1.90413L329.831 3.3946C332.675 3.71668 335.533 4.48772 338.41 5.71897L339 4.33998L339.59 2.961C336.467 1.62403 333.325 0.771165 330.169 0.413656L330 1.90413ZM339 4.33998L338.41 5.71897C341.526 7.05288 344.659 7.93085 347.805 8.34323L348 6.85595L348.195 5.36867C345.341 4.99465 342.474 4.19531 339.59 2.961L339 4.33998ZM348 6.85595L347.805 8.34323C351.073 8.77154 354.328 8.33927 357.548 7.07454L357 5.67836L356.452 4.28218C353.672 5.37397 350.927 5.72676 348.195 5.36867L348 6.85595ZM357 5.67836L357.548 7.07454C360.213 6.02809 362.836 5.98973 365.49 6.9498L366 5.53931L366.51 4.12881C363.164 2.91777 359.787 2.97212 356.452 4.28218L357 5.67836ZM366 5.53931L365.49 6.9498C368.826 8.15722 372.194 8.13491 375.526 6.88662L375 5.48194L374.474 4.07726C371.806 5.07657 369.174 5.09251 366.51 4.12881L366 5.53931ZM375 5.48194L375.526 6.88662C378.229 5.87427 380.894 5.77392 383.574 6.56791L384 5.12972L384.426 3.69154C381.106 2.70755 377.771 2.84201 374.474 4.07726L375 5.48194ZM384 5.12972L383.574 6.56791C386.718 7.49963 389.875 7.92852 393.038 7.84758L393 6.34807L392.962 4.84856C390.125 4.92113 387.282 4.53779 384.426 3.69154L384 5.12972ZM393 6.34807L393.038 7.84758C394.569 7.80841 395.833 7.7046 396.789 7.517C397.265 7.42363 397.722 7.29861 398.118 7.11938C398.486 6.95298 398.987 6.65749 399.299 6.11618L398 5.36646L396.701 4.61675C396.846 4.36426 397.014 4.32629 396.882 4.3861C396.778 4.43307 396.569 4.50296 396.211 4.57319C395.5 4.71279 394.431 4.81097 392.962 4.84856L393 6.34807ZM398 5.36646L399.362 5.99517L399.762 5.12871L398.4 4.5L397.038 3.87129L396.638 4.73776L398 5.36646ZM398.4 4.5V6H398.5V4.5V3H398.4V4.5Z" fill="#CAD4DE"/>
</svg>
