<svg width="400" height="9" viewBox="0 0 400 9" fill="none" xmlns="http://www.w3.org/2000/svg">
<path d="M1.5 3C0.671573 3 0 3.67157 0 4.5C0 5.32843 0.671573 6 1.5 6V3ZM1.6 4.5V6H1.67048L1.74064 5.99339L1.6 4.5ZM33 5.1144L32.8312 6.60487L33 5.1144ZM141 2.31276L140.689 3.78027L141 2.31276ZM321 1.72511L320.937 3.22379L321 1.72511ZM348 2.95L347.967 4.44964L348 2.95ZM398 5.69297L399.383 6.27279L399.405 6.22202L399.422 6.16982L398 5.69297ZM398.4 4.5V3H397.321L396.978 4.02314L398.4 4.5ZM398.5 6C399.328 6 400 5.32843 400 4.5C400 3.67157 399.328 3 398.5 3V6ZM1.5 4.5V6H1.6V4.5V3H1.5V4.5ZM1.6 4.5L1.74064 5.99339C7.62733 5.43901 11.8711 5.59741 14.6001 6.35225L15 4.90653L15.3999 3.46082C12.1289 2.55607 7.43933 2.44344 1.45936 3.00661L1.6 4.5ZM15 4.90653L14.6001 6.35225C17.8081 7.23956 21.0313 7.41011 24.254 6.85641L24 5.37807L23.746 3.89973C20.9687 4.3769 18.1919 4.2331 15.3999 3.46082L15 4.90653ZM24 5.37807L24.254 6.85641C27.1155 6.36476 29.9732 6.28129 32.8312 6.60487L33 5.1144L33.1688 3.62392C30.0268 3.26819 26.8845 3.3605 23.746 3.89973L24 5.37807ZM33 5.1144L32.8312 6.60487C35.7824 6.93899 38.7345 7.42008 41.6879 8.04838L42 6.58122L42.3121 5.11405C39.2655 4.4659 36.2176 3.96911 33.1688 3.62392L33 5.1144ZM42 6.58122L41.6879 8.04838C44.8959 8.73086 48.1107 8.72391 51.3181 8.02782L51 6.56195L50.6819 5.09607C47.8893 5.70213 45.1041 5.70803 42.3121 5.11405L42 6.58122ZM51 6.56195L51.3181 8.02782C54.4312 7.35221 57.5337 6.30379 60.6246 4.88824L60 3.52446L59.3754 2.16067C56.4663 3.49296 53.5688 4.46954 50.6819 5.09607L51 6.56195ZM60 3.52446L60.6246 4.88824C63.3515 3.6394 66.0197 3.33469 68.677 3.92062L69 2.45581L69.323 0.990996C65.9803 0.253955 62.6485 0.66167 59.3754 2.16067L60 3.52446ZM69 2.45581L68.677 3.92062C71.59 4.56292 74.5091 5.47781 77.4348 6.66784L78 5.27838L78.5652 3.88892C75.4909 2.6385 72.41 1.67168 69.323 0.990996L69 2.45581ZM78 5.27838L77.4348 6.66784C80.7164 8.00258 84.043 8.2654 87.3681 7.42361L87 5.96948L86.6319 4.51536C83.957 5.19255 81.2836 4.99464 78.5652 3.88892L78 5.27838ZM87 5.96948L87.3681 7.42361C90.1485 6.71971 92.9169 6.6616 95.6908 7.24591L96 5.77811L96.3092 4.31032C93.0831 3.6308 89.8515 3.70026 86.6319 4.51536L87 5.96948ZM96 5.77811L95.6908 7.24591C99.0975 7.96348 102.47 7.3257 105.746 5.44845L105 4.14703L104.254 2.8456C101.53 4.40697 98.9025 4.85658 96.3092 4.31032L96 5.77811ZM105 4.14703L105.746 5.44845C108.356 3.9527 110.852 3.81469 113.388 4.94747L114 3.57786L114.612 2.20825C111.148 0.6613 107.644 0.902731 104.254 2.8456L105 4.14703ZM114 3.57786L113.388 4.94747C116.558 6.36294 119.759 7.10205 122.983 7.13865L123 5.63875L123.017 4.13885C120.241 4.10733 117.442 3.47251 114.612 2.20825L114 3.57786ZM123 5.63875L122.983 7.13865C126.238 7.17561 129.465 6.40902 132.65 4.87698L132 3.52523L131.35 2.17349C128.535 3.52759 125.762 4.17001 123.017 4.13885L123 5.63875ZM132 3.52523L132.65 4.87698C135.379 3.56449 138.042 3.22011 140.689 3.78027L141 2.31276L141.311 0.845249C137.958 0.135896 134.621 0.599834 131.35 2.17349L132 3.52523ZM141 2.31276L140.689 3.78027C143.889 4.45731 147.096 4.47265 150.297 3.82576L150 2.35548L149.703 0.885204C146.904 1.45086 144.111 1.43772 141.311 0.845249L141 2.31276ZM150 2.35548L150.297 3.82576C152.952 3.28926 155.623 3.63999 158.356 4.93832L159 3.58338L159.644 2.22844C156.377 0.677016 153.048 0.209149 149.703 0.885204L150 2.35548ZM159 3.58338L158.356 4.93832C161.553 6.45636 164.793 7.16873 168.062 7.03425L168 5.53552L167.938 4.03679C165.207 4.14919 162.447 3.56014 159.644 2.22844L159 3.58338ZM168 5.53552L168.062 7.03425C171.259 6.90269 174.437 6.15283 177.59 4.80349L177 3.42447L176.41 2.04546C173.563 3.26395 170.741 3.92145 167.938 4.03679L168 5.53552ZM177 3.42447L177.59 4.80349C180.217 3.67918 182.794 3.67065 185.418 4.77484L186 3.39227L186.582 2.0097C183.206 0.588999 179.783 0.601943 176.41 2.04546L177 3.42447ZM186 3.39227L185.418 4.77484C188.557 6.09585 191.718 6.87503 194.895 7.09783L195 5.6015L195.105 4.10518C192.282 3.90722 189.443 3.21358 186.582 2.0097L186 3.39227ZM195 5.6015L194.895 7.09783C198.009 7.31619 201.122 7.18077 204.233 6.69241L204 5.21056L203.767 3.72871C200.878 4.18237 197.991 4.30757 195.105 4.10518L195 5.6015ZM204 5.21056L204.233 6.69241C207.178 6.23003 210.122 5.9353 213.065 5.80799L213 4.30939L212.935 2.81079C209.878 2.94303 206.822 3.24908 203.767 3.72871L204 5.21056ZM213 4.30939L213.065 5.80799C215.919 5.68451 218.778 5.97096 221.644 6.67118L222 5.21403L222.356 3.75688C219.222 2.99136 216.081 2.67472 212.935 2.81079L213 4.30939ZM222 5.21403L221.644 6.67118C224.761 7.43262 227.885 7.80214 231.012 7.77673L231 6.27678L230.988 4.77683C228.115 4.80016 225.239 4.46119 222.356 3.75688L222 5.21403ZM231 6.27678L231.012 7.77673C234.015 7.75233 237.019 7.7184 240.022 7.67494L240 6.1751L239.978 4.67525C236.981 4.71862 233.985 4.75248 230.988 4.77683L231 6.27678ZM240 6.1751L240.022 7.67494C242.911 7.63312 245.803 7.90762 248.699 8.50007L249 7.0305L249.301 5.56093C246.197 4.92601 243.089 4.63024 239.978 4.67525L240 6.1751ZM249 7.0305L248.699 8.50007C252.089 9.19348 255.449 8.59218 258.722 6.79579L258 5.48087L257.278 4.16595C254.551 5.6631 251.911 6.09489 249.301 5.56093L249 7.0305ZM258 5.48087L258.722 6.79579C261.462 5.29175 264.118 4.81798 266.74 5.27879L267 3.80143L267.26 2.32406C263.882 1.73058 260.538 2.37643 257.278 4.16595L258 5.48087ZM267 3.80143L266.74 5.27879C269.674 5.79434 272.611 6.51265 275.551 7.43462L276 6.00335L276.449 4.57208C273.389 3.61245 270.326 2.86281 267.26 2.32406L267 3.80143ZM276 6.00335L275.551 7.43462C278.781 8.44741 282.032 8.64772 285.283 8.02332L285 6.55024L284.717 5.07717C281.968 5.60518 279.219 5.44091 276.449 4.57208L276 6.00335ZM285 6.55024L285.283 8.02332C288.201 7.46288 291.116 7.1546 294.029 7.0976L294 5.59788L293.971 4.09817C290.884 4.15856 287.799 4.48519 284.717 5.07717L285 6.55024ZM294 5.59788L294.029 7.0976C297.017 7.03913 300.006 7.01622 302.994 7.02885L303 5.52886L303.006 4.02887C299.994 4.01614 296.983 4.03924 293.971 4.09817L294 5.59788ZM303 5.52886L302.994 7.02885C306.226 7.04251 309.435 6.32755 312.611 4.91202L312 3.54197L311.389 2.17192C308.565 3.43094 305.774 4.04057 303.006 4.02887L303 5.52886ZM312 3.54197L312.611 4.91202C315.419 3.66007 318.19 3.10837 320.937 3.22379L321 1.72511L321.063 0.226434C317.81 0.0897875 314.581 0.749325 311.389 2.17192L312 3.54197ZM321 1.72511L320.937 3.22379C323.734 3.34129 326.551 4.01584 329.396 5.26835L330 3.89554L330.604 2.52272C327.449 1.1334 324.266 0.361005 321.063 0.226434L321 1.72511ZM330 3.89554L329.396 5.26835C332.724 6.73398 336.11 6.91815 339.478 5.78587L339 4.36407L338.522 2.94227C335.89 3.82711 333.276 3.69892 330.604 2.52272L330 3.89554ZM339 4.36407L339.478 5.78587C342.323 4.82957 345.15 4.38781 347.967 4.44964L348 2.95L348.033 1.45037C344.85 1.3805 341.677 1.88146 338.522 2.94227L339 4.36407ZM348 2.95L347.967 4.44964C350.894 4.51389 353.822 4.79131 356.752 5.2824L357 3.80304L357.248 2.32367C354.178 1.80908 351.106 1.51782 348.033 1.45037L348 2.95ZM357 3.80304L356.752 5.2824C359.948 5.81811 363.146 5.71839 366.336 4.98635L366 3.52437L365.664 2.06239C362.854 2.70759 360.052 2.79364 357.248 2.32367L357 3.80304ZM366 3.52437L366.336 4.98635C369.114 4.34861 371.884 4.35069 374.662 4.99272L375 3.53122L375.338 2.06973C372.116 1.32539 368.886 1.3229 365.664 2.06239L366 3.52437ZM375 3.53122L374.662 4.99272C377.658 5.68486 380.653 6.39159 383.649 7.11291L384 5.6546L384.351 4.19628C381.347 3.47281 378.342 2.76396 375.338 2.06973L375 3.53122ZM384 5.6546L383.649 7.11291C386.753 7.86034 389.862 8.26075 392.975 8.31186L393 6.81206L393.025 5.31226C390.138 5.26487 387.247 4.89364 384.351 4.19628L384 5.6546ZM393 6.81206L392.975 8.31186C394.519 8.3372 395.823 8.25777 396.828 8.03301C397.707 7.83616 398.907 7.40983 399.383 6.27279L398 5.69297L396.617 5.11315C396.76 4.77142 396.96 4.92926 396.172 5.10544C395.51 5.25371 394.481 5.33617 393.025 5.31226L393 6.81206ZM398 5.69297L399.422 6.16982L399.822 4.97686L398.4 4.5L396.978 4.02314L396.578 5.21611L398 5.69297ZM398.4 4.5V6H398.5V4.5V3H398.4V4.5Z" fill="#CAD4DE"/>
</svg>
