<svg width="22" height="22" viewBox="0 0 22 22" fill="none" xmlns="http://www.w3.org/2000/svg">
<path fill-rule="evenodd" clip-rule="evenodd" d="M2.40508 0.0145464C1.37285 0.122329 0.475999 0.845539 0.144269 1.83764C-0.187743 2.83057 0.0624815 3.89727 0.800235 4.63401C1.25764 5.0908 1.84331 5.35886 2.49168 5.4082C3.13735 5.45733 3.77421 5.27006 4.29468 4.87802C5.48451 3.98181 5.72816 2.27562 4.83617 1.08617C4.6906 0.892026 4.58542 0.779294 4.42185 0.642002C3.84965 0.161784 3.1323 -0.0613917 2.40508 0.0145464ZM16.2239 6.89715C15.2241 6.97228 14.2718 7.33075 13.4882 7.92693C13.0584 8.25395 12.6238 8.71078 12.3495 9.12392L12.247 9.27843L12.2431 8.30626L12.2393 7.3341L10.0575 7.33034L7.87562 7.32656V14.6633V22L10.0575 21.9962L12.2393 21.9925L12.2475 17.8744C12.2564 13.3839 12.2506 13.6842 12.3369 13.251C12.6056 11.9034 13.4157 11.1411 14.6999 11.0272C15.2165 10.9814 15.7415 11.0618 16.123 11.2451C16.7685 11.5553 17.1989 12.2139 17.3755 13.1618C17.4611 13.6213 17.4556 13.3307 17.4645 17.8447L17.4728 21.9925L19.7364 21.9962L22 22L21.9997 17.2464C21.9995 14.3495 21.9938 12.3882 21.9849 12.2252C21.9041 10.7363 21.5108 9.56649 20.7829 8.64978C20.6444 8.47541 20.2815 8.11036 20.1118 7.97484C19.6467 7.60336 19.0381 7.29353 18.4317 7.11957C17.7623 6.92751 16.9324 6.8439 16.2239 6.89715ZM0.441729 14.6633V22L2.71278 21.9962L4.98383 21.9925V14.6633V7.3341L2.71278 7.33034L0.441729 7.32657V14.6633Z" fill="white"/>
</svg>
