<svg width="25" height="26" viewBox="0 0 25 26" fill="none" xmlns="http://www.w3.org/2000/svg">
<path d="M17.0554 24.8265C14.7952 25.5313 12.5739 25.7396 10.3915 25.4513C8.20917 25.163 6.29966 24.3828 4.66299 23.1107C3.02633 21.8385 1.87765 20.143 1.21694 18.024C0.479141 15.6578 0.232346 13.3129 0.476556 10.9893C0.709754 8.63036 1.48123 6.56857 2.79098 4.80394C4.12504 2.99298 5.93983 1.72961 8.23537 1.01384C10.6369 0.265028 12.6979 0.474867 14.4185 1.64335C16.1281 2.77653 17.3109 4.51955 17.9671 6.87243C18.6168 8.95608 18.2824 10.8041 16.9639 12.4164C15.6807 14.0178 13.7678 15.2149 11.225 16.0077C10.8365 16.1289 10.2428 16.2753 9.44385 16.4469C8.12842 16.702 7.16729 16.7886 6.56047 16.7066C5.95365 16.6245 5.53462 16.2127 5.30337 15.4711C5.22629 15.2239 5.24186 15.0253 5.35009 14.8753C5.4473 14.69 5.7078 14.5312 6.1316 14.3991C6.5907 14.2559 7.43601 14.1086 8.66751 13.9571C9.86369 13.8166 10.9032 13.6087 11.7861 13.3334C15.0352 12.3203 16.2193 10.4011 15.3383 7.57586C14.8097 5.8807 14.0734 4.63779 13.1294 3.84716C12.2207 3.04551 10.9894 2.88695 9.43551 3.37148C7.74034 3.90005 6.36491 4.83266 5.30921 6.16933C4.2425 7.47069 3.56407 8.96097 3.27392 10.6402C3.01909 12.3084 3.14494 13.9547 3.65149 15.5793C4.52143 18.3692 6.01416 20.4225 8.12967 21.7391C10.2342 23.0204 12.911 23.1545 16.16 22.1414C16.5485 22.0203 17.1908 21.7812 18.087 21.4243C18.4645 21.2678 18.9082 21.0132 19.4182 20.6605C19.9282 20.3077 20.2958 20.0574 20.521 19.9097C21.8744 18.9065 22.9043 18.2947 23.6106 18.0745C24.1403 17.9093 24.5905 17.9239 24.9611 18.1184C24.4967 19.7357 23.4807 21.1375 21.9131 22.3238C20.3698 23.4637 18.7506 24.298 17.0554 24.8265Z" fill="#0044FF"/>
</svg>
