<svg width="19" height="40" viewBox="0 0 19 40" fill="none" xmlns="http://www.w3.org/2000/svg">
<path d="M5.89439 39.0775C5.70943 39.1145 5.50597 38.4116 5.28401 36.9689C5.09904 35.5262 4.84009 33.0476 4.50715 29.5333C3.98925 23.7624 3.39736 18.4724 2.73149 13.6633C2.10261 8.8542 1.30726 4.69249 0.345438 1.17815C0.271452 0.882206 0.38243 0.623255 0.678374 0.401295C0.974318 0.179338 1.38124 0.0683594 1.89914 0.0683594C2.1581 0.0683594 2.36156 0.0868546 2.50953 0.123847C3.43436 2.63937 4.08173 4.85896 4.45166 6.78259C4.85859 8.70623 5.22852 11.0738 5.56146 13.8853L5.8389 16.0493C6.33831 13.1481 9.17669 11.959 11.0263 11.959C14.3927 11.959 15.3836 13.3119 16.7893 16.3823C18.232 19.4157 18.9534 23.7439 18.9534 29.3669C18.9534 31.5125 18.8239 33.3251 18.565 34.8048C18.306 36.2476 17.9916 36.9689 17.6217 36.9689C17.1408 36.9689 16.6044 36.6175 16.0125 35.9146V34.0835L16.068 28.0351C16.068 26.8883 16.142 25.3452 16.068 23.6435C15.957 20.7581 15.27 17.5291 14.1972 16.0493C13.1614 14.5696 12.2154 13.2114 9.44093 13.8853C7.45916 14.678 6.2701 16.7153 6.33831 19.1568C6.33831 20.5625 6.3938 22.0052 6.50478 23.4849C6.65275 24.9647 6.81922 26.4074 7.00418 27.8131C7.26313 29.7738 7.4481 31.5124 7.55908 33.0291C7.70705 34.5089 7.78103 36.1551 7.78103 37.9677C7.55908 38.4116 7.30013 38.7076 7.00418 38.8555C6.74523 39.0035 6.3753 39.0775 5.89439 39.0775Z" fill="#0044FF"/>
</svg>
