<svg width="21" height="25" viewBox="0 0 21 25" fill="none" xmlns="http://www.w3.org/2000/svg">
<path d="M3.82873 24.7735C2.82827 24.3862 2.09152 22.3953 1.61849 18.8008C1.19331 15.1851 0.816523 10.6759 0.488129 5.27295L0.22932 1.48368C0.362856 1.13869 0.696707 0.891079 1.23087 0.740833C1.7784 0.556088 2.45947 0.641208 3.27408 0.996194C3.33418 1.4558 3.44884 3.10672 3.61805 5.94895C3.834 9.28529 4.03659 12.0413 4.22582 14.2169C4.4629 16.3714 4.83631 18.7373 5.34604 21.3147C6.76045 19.4028 8.19043 17.6555 9.636 16.073C11.1294 14.4694 13.2855 12.2297 16.1043 9.35405L17.5816 7.84333C17.9489 7.50946 18.4257 7.45604 19.0122 7.68305C19.4262 7.84329 19.7484 8.087 19.9787 8.41418C20.2091 8.74135 20.2508 9.09468 20.104 9.47417C19.9704 9.81916 19.6577 10.1146 19.1658 10.3606C18.8309 10.5086 18.2121 11.0823 17.3096 12.0816C16.4205 13.0465 15.4607 14.1427 14.4302 15.3702C11.677 18.5886 9.41018 21.0631 7.62965 22.7936C5.86247 24.4896 4.59549 25.1496 3.82873 24.7735Z" fill="#0044FF"/>
</svg>
